SplineFontDB: 1.0
FontName: UbuntuTitleRegular
FullName: UbuntuTitleRegular
FamilyName: UbuntuTitleRegular
Weight: Regular
Copyright: Copyright (c) 2005 Canonical Ltd.\nmade by Andrew Fitzsimon ( andrew@fitzsimon.com.au ) \nreleased under the LGPL ( http://www.gnu.org/copyleft/lesser.html )\naccents and some fixes from Paulo Silva - may'07
Version: 002.000
ItalicAngle: 0
UnderlinePosition: -100
UnderlineWidth: 50
Ascent: 800
Descent: 200
Order2: 1
XUID: [1021 682 1097764676 9831425]
FSType: 0
OS2Version: 1
OS2_WeightWidthSlopeOnly: 0
OS2_UseTypoMetrics: 1
CreationTime: 1124425253
ModificationTime: 1181233878
PfmFamily: 17
TTFWeight: 400
TTFWidth: 5
LineGap: 88
VLineGap: 0
Panose: 2 0 5 3 0 0 0 0 0 0
OS2TypoAscent: 0
OS2TypoAOffset: 1
OS2TypoDescent: 0
OS2TypoDOffset: 1
OS2TypoLinegap: 0
OS2WinAscent: 0
OS2WinAOffset: 1
OS2WinDescent: 0
OS2WinDOffset: 1
HheadAscent: 0
HheadAOffset: 1
HheadDescent: 0
HheadDOffset: 1
OS2SubXSize: 648
OS2SubYSize: 696
OS2SubXOff: 0
OS2SubYOff: 138
OS2SupXSize: 648
OS2SupYSize: 696
OS2SupXOff: 0
OS2SupYOff: 476
OS2StrikeYSize: 48
OS2StrikeYPos: 256
OS2Vendor: 'PfEd'
ScriptLang: 1
 1 latn 1 dflt 
TableOrder: GPOS 1
	'kern'
TtfTable: cvt  4
!$MDh
EndTtf
TtfTable: maxp 32
!!*'"!+>k6!!<3$!!!!#!!!!"!!*'"!'gMaz
EndTtf
LangName: 1033 
LangName: 2057 "" "" "Ubuntu-Title" 
LangName: 3081 "" "" "Ubuntu-Title" 
Encoding: UnicodeFull
UnicodeInterp: none
NameList: Adobe Glyph List
DisplaySize: -48
AntiAlias: 1
FitToEm: 1
WinInfo: 160 10 10
BeginChars: 1114114 216
StartChar: exclam
Encoding: 33 33 4
Width: 384
GlyphClass: 2
Flags: W
Fore
186 0 m 0,0,1
 154 4 154 4 142 36 c 0,2,3
 140 44 140 44 140 54 c 2,4,-1
 140 60 l 2,5,6
 140 92 140 92 166 108 c 0,7,8
 194 124 194 124 220 108 c 128,-1,9
 246 92 246 92 246 60 c 2,10,-1
 246 54 l 2,11,12
 246 30 246 30 228 14 c 0,13,14
 212 -2 212 -2 186 0 c 0,0,1
192 192 m 0,15,16
 160 194 160 194 144 222 c 1,17,18
 140 236 140 236 140 246 c 2,19,-1
 140 614 l 2,20,21
 140 644 140 644 166 660 c 0,22,23
 194 676 194 676 220 660 c 128,-1,24
 246 644 246 644 246 614 c 2,25,-1
 246 246 l 2,26,27
 246 222 246 222 232 208 c 0,28,29
 216 192 216 192 192 192 c 0,15,16
EndSplineSet
EndChar
StartChar: quotedbl
Encoding: 34 34 5
Width: 462
GlyphClass: 2
Flags: W
Fore
310 620 m 0,0,1
 332 622 332 622 350 604 c 0,2,3
 368 588 368 588 366 564 c 2,4,-1
 366 466 l 2,5,6
 366 436 366 436 338 418 c 128,-1,7
 310 400 310 400 282 418 c 128,-1,8
 254 436 254 436 254 466 c 2,9,-1
 254 564 l 2,10,11
 254 588 254 588 270 604 c 128,-1,12
 286 620 286 620 310 620 c 0,0,1
104 620 m 0,13,14
 128 622 128 622 144 604 c 0,15,16
 162 588 162 588 160 564 c 2,17,-1
 160 466 l 2,18,19
 160 436 160 436 132 418 c 128,-1,20
 104 400 104 400 78 418 c 0,21,22
 48 436 48 436 48 466 c 2,23,-1
 48 564 l 2,24,25
 48 588 48 588 64 604 c 128,-1,26
 80 620 80 620 104 620 c 0,13,14
EndSplineSet
EndChar
StartChar: numbersign
Encoding: 35 35 6
Width: 792
GlyphClass: 2
Flags: W
Fore
214 710 m 0,0,1
 240 712 240 712 260 696 c 0,2,3
 278 680 278 680 278 654 c 2,4,-1
 278 550 l 1,5,-1
 458 550 l 1,6,-1
 458 654 l 2,7,8
 456 684 456 684 486 702 c 0,9,10
 514 720 514 720 540 702 c 0,11,12
 570 684 570 684 570 654 c 2,13,-1
 570 550 l 1,14,-1
 660 550 l 2,15,16
 692 550 692 550 708 522 c 128,-1,17
 724 494 724 494 708 466 c 0,18,19
 692 436 692 436 660 440 c 2,20,-1
 570 440 l 1,21,-1
 570 258 l 1,22,-1
 660 258 l 2,23,24
 692 258 692 258 708 230 c 128,-1,25
 724 202 724 202 708 174 c 128,-1,26
 692 146 692 146 660 146 c 2,27,-1
 570 146 l 1,28,-1
 570 56 l 2,29,30
 570 24 570 24 540 6 c 0,31,32
 514 -8 514 -8 486 6 c 0,33,34
 456 24 456 24 458 56 c 2,35,-1
 458 146 l 1,36,-1
 278 146 l 1,37,-1
 278 56 l 2,38,39
 278 24 278 24 248 6 c 0,40,41
 220 -8 220 -8 194 6 c 0,42,43
 164 24 164 24 164 56 c 2,44,-1
 164 146 l 1,45,-1
 76 146 l 2,46,47
 42 146 42 146 26 174 c 128,-1,48
 10 202 10 202 26 230 c 128,-1,49
 42 258 42 258 76 258 c 2,50,-1
 164 258 l 1,51,-1
 164 440 l 1,52,-1
 76 440 l 2,53,54
 42 436 42 436 26 466 c 0,55,56
 10 494 10 494 26 522 c 128,-1,57
 42 550 42 550 76 550 c 2,58,-1
 164 550 l 1,59,-1
 164 654 l 2,60,61
 164 664 164 664 168 672 c 0,62,63
 180 706 180 706 214 710 c 0,0,1
278 440 m 1,64,-1
 278 258 l 1,65,-1
 458 258 l 1,66,-1
 458 440 l 1,67,-1
 278 440 l 1,64,-1
EndSplineSet
EndChar
StartChar: dollar
Encoding: 36 36 7
Width: 1000
GlyphClass: 2
Flags: W
Fore
498 696 m 0,0,1
 522 696 522 696 540 680 c 0,2,3
 556 662 556 662 556 638 c 2,4,-1
 556 596 l 1,5,-1
 670 596 l 2,6,7
 700 596 700 596 720 568 c 0,8,9
 736 540 736 540 720 512 c 0,10,11
 700 484 700 484 670 484 c 2,12,-1
 556 484 l 1,13,-1
 556 402 l 1,14,-1
 596 402 l 2,15,16
 632 404 632 404 672 384 c 0,17,18
 682 380 682 380 694 368 c 0,19,20
 752 324 752 324 752 248 c 0,21,22
 752 220 752 220 740 196 c 0,23,24
 720 140 720 140 672 114 c 0,25,26
 652 104 652 104 632 100 c 2,27,-1
 596 96 l 1,28,-1
 556 96 l 1,29,-1
 556 56 l 2,30,31
 556 22 556 22 528 4 c 0,32,33
 500 -12 500 -12 472 4 c 0,34,35
 444 22 444 22 444 56 c 2,36,-1
 444 96 l 1,37,-1
 318 96 l 2,38,39
 284 96 284 96 268 124 c 128,-1,40
 252 152 252 152 268 180 c 128,-1,41
 284 208 284 208 318 208 c 2,42,-1
 444 208 l 1,43,-1
 444 292 l 1,44,-1
 402 292 l 2,45,46
 366 290 366 290 328 308 c 1,47,48
 318 316 318 316 306 324 c 0,49,50
 248 370 248 370 248 444 c 0,51,52
 248 472 248 472 260 498 c 0,53,54
 280 556 280 556 328 580 c 0,55,56
 346 588 346 588 368 592 c 2,57,-1
 402 596 l 1,58,-1
 444 596 l 1,59,-1
 444 638 l 2,60,61
 444 662 444 662 460 678 c 0,62,63
 476 696 476 696 498 696 c 0,0,1
402 484 m 2,64,65
 390 484 390 484 380 480 c 0,66,67
 350 464 350 464 372 476 c 1,68,69
 360 470 360 470 360 444 c 0,70,71
 360 428 360 428 364 420 c 1,72,73
 364 416 364 416 380 408 c 1,74,75
 400 404 400 404 402 402 c 1,76,-1
 444 402 l 1,77,-1
 444 484 l 1,78,-1
 402 484 l 2,64,65
556 292 m 1,79,-1
 556 208 l 1,80,-1
 596 208 l 2,81,82
 610 208 610 208 620 216 c 1,83,-1
 628 216 l 1,84,85
 640 222 640 222 640 248 c 0,86,87
 640 264 640 264 636 272 c 1,88,89
 634 280 634 280 620 284 c 1,90,-1
 618 286 l 1,91,-1
 596 292 l 1,92,-1
 556 292 l 1,79,-1
EndSplineSet
EndChar
StartChar: quotesingle
Encoding: 39 39 8
Width: 384
GlyphClass: 2
Flags: W
Fore
192 628 m 0,0,1
 216 630 216 630 234 614 c 0,2,3
 250 596 250 596 248 572 c 2,4,-1
 248 476 l 2,5,6
 248 442 248 442 220 426 c 0,7,8
 194 408 194 408 164 426 c 0,9,10
 136 442 136 442 136 476 c 2,11,-1
 136 572 l 2,12,13
 136 596 136 596 154 612 c 0,14,15
 168 628 168 628 192 628 c 0,0,1
EndSplineSet
EndChar
StartChar: parenleft
Encoding: 40 40 9
Width: 380
GlyphClass: 2
Flags: W
Fore
192 700 m 0,0,1
 228 704 228 704 248 674 c 1,2,3
 248 672 248 672 252 668 c 1,4,5
 266 634 266 634 242 608 c 1,6,7
 240 604 240 604 240 602 c 1,8,-1
 220 578 l 2,9,10
 210 564 210 564 200 544 c 0,11,12
 160 460 160 460 160 350 c 0,13,14
 160 244 160 244 200 160 c 0,15,16
 220 116 220 116 240 100 c 1,17,18
 262 76 262 76 256 44 c 0,19,20
 248 12 248 12 216 2 c 0,21,22
 180 -4 180 -4 160 20 c 2,23,-1
 132 56 l 2,24,25
 114 80 114 80 100 108 c 0,26,27
 46 216 46 216 46 350 c 0,28,29
 46 486 46 486 100 596 c 0,30,31
 128 650 128 650 160 680 c 1,32,33
 172 698 172 698 192 700 c 0,0,1
EndSplineSet
EndChar
StartChar: parenright
Encoding: 41 41 10
Width: 332
GlyphClass: 2
Flags: W
Fore
118 2 m 0,0,1
 82 -2 82 -2 60 28 c 1,2,-1
 60 34 l 1,3,4
 42 68 42 68 68 96 c 1,5,6
 70 96 70 96 72 100 c 1,7,-1
 92 124 l 1,8,9
 100 140 100 140 110 158 c 0,10,11
 152 242 152 242 152 350 c 0,12,13
 152 460 152 460 110 544 c 0,14,15
 88 586 88 586 72 602 c 0,16,17
 48 626 48 626 56 660 c 0,18,19
 62 692 62 692 96 700 c 0,20,21
 128 708 128 708 150 680 c 2,22,-1
 178 648 l 2,23,24
 196 622 196 622 208 596 c 0,25,26
 264 484 264 484 264 350 c 128,-1,27
 264 216 264 216 208 108 c 0,28,29
 180 52 180 52 150 20 c 0,30,31
 136 4 136 4 118 2 c 0,0,1
EndSplineSet
EndChar
StartChar: asterisk
Encoding: 42 42 11
Width: 530
GlyphClass: 2
Flags: W
Fore
346 798 m 0,0,1
 378 800 378 800 396 770 c 0,2,3
 412 744 412 744 396 716 c 2,4,-1
 362 652 l 1,5,-1
 436 652 l 2,6,7
 470 652 470 652 486 622 c 0,8,9
 502 596 502 596 486 568 c 0,10,11
 470 538 470 538 436 540 c 2,12,-1
 364 540 l 1,13,-1
 404 476 l 2,14,15
 424 444 424 444 404 412 c 1,16,17
 396 404 396 404 386 398 c 0,18,19
 356 380 356 380 324 400 c 1,20,21
 316 408 316 408 308 418 c 2,22,-1
 270 478 l 1,23,-1
 236 414 l 2,24,25
 220 380 220 380 182 384 c 0,26,27
 172 384 172 384 160 390 c 0,28,29
 128 408 128 408 132 444 c 0,30,31
 132 456 132 456 136 466 c 2,32,-1
 176 540 l 1,33,-1
 96 540 l 2,34,35
 64 538 64 538 48 568 c 0,36,37
 32 596 32 596 48 622 c 0,38,39
 64 652 64 652 96 652 c 2,40,-1
 162 652 l 1,41,-1
 128 704 l 2,42,43
 108 738 108 738 132 768 c 1,44,45
 136 778 136 778 146 784 c 0,46,47
 180 800 180 800 208 780 c 1,48,49
 218 776 218 776 224 764 c 2,50,-1
 260 702 l 1,51,-1
 298 766 l 2,52,53
 312 798 312 798 346 798 c 0,0,1
EndSplineSet
EndChar
StartChar: plus
Encoding: 43 43 12
Width: 592
GlyphClass: 2
Flags: W
Fore
318 642 m 256,0,1
 342 642 342 642 360 624 c 0,2,3
 376 608 376 608 376 584 c 2,4,-1
 376 446 l 1,5,-1
 514 446 l 2,6,7
 544 446 544 446 562 420 c 0,8,9
 580 390 580 390 562 362 c 128,-1,10
 544 334 544 334 514 334 c 2,11,-1
 376 334 l 1,12,-1
 376 196 l 2,13,14
 376 164 376 164 348 146 c 0,15,16
 320 130 320 130 290 146 c 0,17,18
 262 164 262 164 262 196 c 2,19,-1
 262 334 l 1,20,-1
 124 334 l 2,21,22
 92 334 92 334 76 362 c 128,-1,23
 60 390 60 390 76 420 c 0,24,25
 92 446 92 446 124 446 c 2,26,-1
 262 446 l 1,27,-1
 262 584 l 2,28,29
 262 608 262 608 280 624 c 1,30,31
 294 642 294 642 318 642 c 256,0,1
EndSplineSet
EndChar
StartChar: comma
Encoding: 44 44 13
Width: 230
GlyphClass: 2
Flags: W
Fore
100 212 m 0,0,1
 122 212 122 212 140 196 c 0,2,3
 156 178 156 178 156 154 c 2,4,-1
 156 56 l 2,5,6
 156 24 156 24 128 8 c 128,-1,7
 100 -8 100 -8 70 8 c 0,8,9
 42 24 42 24 42 56 c 2,10,-1
 42 154 l 2,11,12
 42 178 42 178 60 196 c 0,13,14
 74 212 74 212 100 212 c 0,0,1
EndSplineSet
EndChar
StartChar: hyphen
Encoding: 45 45 14
Width: 356
GlyphClass: 2
Flags: W
Fore
276 184 m 2,0,-1
 86 184 l 2,1,2
 52 184 52 184 36 212 c 128,-1,3
 20 240 20 240 36 268 c 0,4,5
 54 296 54 296 86 296 c 2,6,-1
 276 296 l 2,7,8
 308 296 308 296 324 268 c 128,-1,9
 340 240 340 240 324 212 c 128,-1,10
 308 184 308 184 276 184 c 2,0,-1
EndSplineSet
EndChar
StartChar: period
Encoding: 46 46 15
Width: 196
GlyphClass: 2
Flags: W
Fore
80 0 m 0,0,1
 48 4 48 4 36 36 c 0,2,3
 34 44 34 44 34 54 c 2,4,-1
 34 60 l 2,5,6
 34 92 34 92 60 108 c 0,7,8
 88 124 88 124 114 108 c 128,-1,9
 140 92 140 92 140 60 c 2,10,-1
 140 54 l 2,11,12
 140 28 140 28 122 12 c 0,13,14
 104 -2 104 -2 80 0 c 0,0,1
EndSplineSet
EndChar
StartChar: slash
Encoding: 47 47 16
Width: 1000
GlyphClass: 2
Flags: W
Fore
716 700 m 0,0,1
 750 702 750 702 768 670 c 128,-1,2
 786 638 786 638 764 610 c 2,3,-1
 326 24 l 2,4,5
 304 -4 304 -4 268 4 c 0,6,7
 256 6 256 6 248 14 c 1,8,9
 216 36 216 36 224 72 c 1,10,11
 228 82 228 82 236 92 c 2,12,-1
 674 676 l 2,13,14
 690 698 690 698 716 700 c 0,0,1
EndSplineSet
EndChar
StartChar: zero
Encoding: 48 48 17
Width: 628
GlyphClass: 2
Flags: W
Fore
316 696 m 256,0,1
 400 696 400 696 464 648 c 2,2,-1
 476 640 l 2,3,4
 584 550 584 550 584 346 c 0,5,6
 584 136 584 136 464 48 c 0,7,8
 400 0 400 0 316 0 c 0,9,10
 220 0 220 0 156 52 c 0,11,12
 44 140 44 140 48 348 c 0,13,14
 48 558 48 558 166 646 c 0,15,16
 232 696 232 696 316 696 c 256,0,1
316 112 m 0,17,18
 364 112 364 112 398 136 c 0,19,20
 472 192 472 192 472 346 c 0,21,22
 472 504 472 504 398 558 c 0,23,24
 364 584 364 584 316 584 c 128,-1,25
 268 584 268 584 232 556 c 0,26,27
 160 502 160 502 160 346 c 0,28,29
 156 112 156 112 316 112 c 0,17,18
EndSplineSet
EndChar
StartChar: one
Encoding: 49 49 18
Width: 242
GlyphClass: 2
Flags: W
Fore
142 668 m 2,0,1
 164 668 164 668 180 652 c 128,-1,2
 196 636 196 636 196 614 c 2,3,-1
 196 56 l 2,4,5
 196 24 196 24 168 8 c 0,6,7
 142 -8 142 -8 116 8 c 0,8,9
 88 24 88 24 90 56 c 2,10,-1
 90 560 l 1,11,-1
 54 560 l 2,12,13
 24 560 24 560 8 586 c 0,14,15
 -8 614 -8 614 8 640 c 0,16,17
 22 666 22 666 54 666 c 2,18,-1
 142 668 l 2,0,1
EndSplineSet
EndChar
StartChar: two
Encoding: 50 50 19
Width: 562
GlyphClass: 2
Flags: W
Fore
412 472 m 0,0,1
 412 588 412 588 320 588 c 2,2,-1
 200 588 l 2,3,4
 178 588 178 588 164 580 c 1,5,6
 160 576 160 576 160 572 c 0,7,8
 160 538 160 538 132 522 c 0,9,10
 102 504 102 504 76 522 c 0,11,12
 48 538 48 538 48 572 c 0,13,14
 50 636 50 636 100 672 c 0,15,16
 142 700 142 700 200 700 c 2,17,-1
 320 700 l 2,18,19
 404 700 404 700 462 644 c 0,20,21
 524 582 524 582 524 472 c 0,22,23
 524 360 524 360 450 300 c 0,24,25
 388 248 388 248 272 248 c 0,26,27
 204 248 204 248 180 224 c 0,28,29
 160 208 160 208 160 158 c 2,30,-1
 160 116 l 1,31,-1
 468 116 l 2,32,33
 500 116 500 116 516 88 c 128,-1,34
 532 60 532 60 516 32 c 128,-1,35
 500 4 500 4 468 4 c 2,36,-1
 102 4 l 2,37,38
 68 4 68 4 52 36 c 1,39,40
 48 48 48 48 48 60 c 2,41,-1
 48 158 l 2,42,43
 48 256 48 256 104 308 c 128,-1,44
 160 360 160 360 272 360 c 0,45,46
 346 360 346 360 380 386 c 0,47,48
 412 412 412 412 412 472 c 0,0,1
EndSplineSet
EndChar
StartChar: three
Encoding: 51 51 20
Width: 562
GlyphClass: 2
Flags: W
Fore
154 132 m 1,0,1
 180 114 180 114 220 114 c 2,2,-1
 318 112 l 2,3,4
 356 112 356 112 378 136 c 0,5,6
 408 164 408 164 408 224 c 0,7,8
 408 256 408 256 400 270 c 1,9,10
 398 276 398 276 390 280 c 1,11,12
 372 286 372 286 268 286 c 0,13,14
 232 286 232 286 220 324 c 0,15,16
 212 362 212 362 234 384 c 1,17,18
 246 400 246 400 268 400 c 0,19,20
 388 400 388 400 400 422 c 0,21,22
 408 436 408 436 408 468 c 0,23,24
 408 532 408 532 378 560 c 0,25,26
 356 582 356 582 318 582 c 2,27,-1
 316 582 l 1,28,-1
 220 584 l 2,29,30
 190 584 190 584 166 572 c 0,31,32
 154 564 154 564 154 566 c 1,33,34
 154 534 154 534 126 516 c 0,35,36
 98 500 98 500 70 516 c 0,37,38
 40 534 40 534 40 566 c 0,39,40
 44 636 44 636 116 672 c 0,41,42
 162 696 162 696 220 696 c 2,43,-1
 318 696 l 2,44,45
 400 696 400 696 456 640 c 0,46,47
 520 578 520 578 520 468 c 0,48,49
 520 412 520 412 500 372 c 1,50,51
 494 364 494 364 480 346 c 1,52,53
 496 328 496 328 500 322 c 0,54,55
 520 284 520 284 520 224 c 0,56,57
 520 120 520 120 456 56 c 0,58,59
 400 0 400 0 318 0 c 2,60,-1
 316 0 l 1,61,-1
 220 0 l 2,62,63
 164 0 164 0 116 24 c 0,64,65
 40 60 40 60 40 128 c 0,66,67
 40 162 40 162 70 178 c 0,68,69
 98 196 98 196 126 178 c 0,70,71
 154 162 154 162 154 128 c 1,72,-1
 154 132 l 1,0,1
EndSplineSet
EndChar
StartChar: four
Encoding: 52 52 21
Width: 600
GlyphClass: 2
Flags: W
Fore
408 700 m 0,0,1
 432 704 432 704 452 686 c 0,2,3
 470 670 470 670 470 644 c 2,4,-1
 470 262 l 1,5,-1
 512 262 l 2,6,7
 544 262 544 262 560 236 c 0,8,9
 578 208 578 208 560 178 c 0,10,11
 544 150 544 150 512 152 c 2,12,-1
 470 152 l 1,13,-1
 470 60 l 2,14,15
 472 28 472 28 442 12 c 0,16,17
 416 -4 416 -4 386 12 c 0,18,19
 360 28 360 28 360 60 c 2,20,-1
 360 152 l 1,21,-1
 122 152 l 2,22,23
 84 152 84 152 58 172 c 1,24,25
 32 200 32 200 32 238 c 0,26,27
 32 292 32 292 84 342 c 2,28,-1
 372 680 l 2,29,30
 386 698 386 698 408 700 c 0,0,1
360 494 m 1,31,-1
 160 262 l 1,32,-1
 360 262 l 1,33,-1
 360 494 l 1,31,-1
EndSplineSet
EndChar
StartChar: five
Encoding: 53 53 22
Width: 568
GlyphClass: 2
Flags: W
Fore
52 398 m 2,0,-1
 52 640 l 2,1,2
 52 676 52 676 82 690 c 0,3,4
 92 696 92 696 100 696 c 2,5,-1
 472 696 l 2,6,7
 504 696 504 696 520 668 c 128,-1,8
 536 640 536 640 520 612 c 0,9,10
 504 582 504 582 472 584 c 2,11,-1
 162 584 l 1,12,-1
 162 452 l 1,13,-1
 278 452 l 2,14,15
 392 452 392 452 456 400 c 0,16,17
 528 340 528 340 528 224 c 0,18,19
 528 118 528 118 456 54 c 0,20,21
 396 0 396 0 312 0 c 2,22,-1
 204 0 l 2,23,24
 148 0 148 0 106 28 c 0,25,26
 52 64 52 64 52 128 c 0,27,28
 52 162 52 162 80 178 c 0,29,30
 108 196 108 196 136 178 c 0,31,32
 162 162 162 162 162 128 c 0,33,34
 162 124 162 124 168 120 c 0,35,36
 182 112 182 112 204 112 c 2,37,-1
 312 112 l 2,38,39
 354 112 354 112 382 138 c 0,40,41
 416 168 416 168 416 224 c 0,42,43
 416 288 416 288 384 316 c 0,44,45
 352 340 352 340 278 340 c 2,46,-1
 108 340 l 2,47,48
 72 340 72 340 58 372 c 0,49,50
 52 384 52 384 52 398 c 2,0,-1
EndSplineSet
EndChar
StartChar: six
Encoding: 54 54 23
Width: 546
GlyphClass: 2
Flags: W
Fore
292 404 m 2,0,-1
 296 404 l 1,1,-1
 300 404 l 2,2,3
 348 404 348 404 400 380 c 0,4,5
 416 372 416 372 430 360 c 0,6,7
 504 300 504 300 504 202 c 0,8,9
 504 162 504 162 488 126 c 0,10,11
 462 56 462 56 400 24 c 0,12,13
 360 2 360 2 300 0 c 2,14,-1
 252 0 l 2,15,16
 168 0 168 0 112 56 c 0,17,18
 52 120 52 120 52 224 c 2,19,-1
 52 244 l 1,20,21
 50 248 50 248 52 248 c 1,22,-1
 52 512 l 2,23,24
 60 596 60 596 126 648 c 0,25,26
 188 694 188 694 278 694 c 0,27,28
 366 694 366 694 428 648 c 0,29,30
 504 584 504 584 504 492 c 0,31,32
 504 460 504 460 476 444 c 0,33,34
 448 426 448 426 420 444 c 0,35,36
 392 460 392 460 392 492 c 0,37,38
 392 534 392 534 360 558 c 128,-1,39
 328 582 328 582 278 582 c 0,40,41
 226 582 226 582 192 558 c 0,42,43
 162 534 162 534 162 492 c 2,44,-1
 162 380 l 1,45,46
 232 404 232 404 292 404 c 2,0,-1
162 224 m 2,47,48
 162 164 162 164 192 136 c 0,49,50
 216 112 216 112 252 112 c 2,51,-1
 300 112 l 2,52,53
 328 114 328 114 348 124 c 0,54,55
 392 142 392 142 392 202 c 0,56,57
 392 228 392 228 384 244 c 1,58,59
 378 264 378 264 348 280 c 0,60,61
 326 292 326 292 302 292 c 2,62,-1
 300 292 l 1,63,-1
 296 292 l 2,64,65
 280 292 280 292 276 290 c 2,66,67
 200 282 200 282 170 260 c 1,68,69
 162 256 162 256 162 248 c 2,70,-1
 162 224 l 2,47,48
EndSplineSet
EndChar
StartChar: seven
Encoding: 55 55 24
Width: 588
GlyphClass: 2
Flags: W
Fore
84 684 m 2,0,-1
 528 684 l 2,1,2
 562 684 562 684 580 654 c 0,3,4
 594 622 594 622 574 596 c 2,5,-1
 136 12 l 2,6,7
 114 -18 114 -18 78 -10 c 0,8,9
 64 -6 64 -6 56 0 c 0,10,11
 26 22 26 22 36 58 c 0,12,13
 40 68 40 68 44 80 c 1,14,-1
 416 572 l 1,15,-1
 90 572 l 2,16,17
 54 572 54 572 38 600 c 0,18,19
 32 614 32 614 32 626 c 0,20,21
 30 660 30 660 60 678 c 0,22,23
 72 684 72 684 84 684 c 2,0,-1
EndSplineSet
EndChar
StartChar: eight
Encoding: 56 56 25
Width: 596
GlyphClass: 2
Flags: W
Fore
300 700 m 0,0,1
 406 700 406 700 468 654 c 0,2,3
 548 592 548 592 548 494 c 0,4,5
 548 408 548 408 482 346 c 1,6,7
 504 332 504 332 514 320 c 0,8,9
 552 272 552 272 552 200 c 0,10,11
 552 132 552 132 514 82 c 0,12,13
 480 42 480 42 428 22 c 0,14,15
 372 0 372 0 300 0 c 0,16,17
 224 0 224 0 172 20 c 0,18,19
 118 40 118 40 84 80 c 0,20,21
 46 130 46 130 48 200 c 2,22,-1
 48 202 l 2,23,24
 48 270 48 270 88 320 c 0,25,26
 96 328 96 328 118 344 c 1,27,28
 50 404 50 404 52 494 c 1,29,-1
 52 494 l 1,30,31
 52 538 52 538 70 576 c 0,32,33
 102 644 102 644 172 676 c 0,34,35
 232 700 232 700 300 700 c 0,0,1
300 588 m 0,36,37
 240 588 240 588 196 564 c 0,38,39
 164 544 164 544 164 494 c 2,40,-1
 164 492 l 2,41,42
 164 464 164 464 170 448 c 0,43,44
 180 426 180 426 214 412 c 0,45,46
 240 400 240 400 282 400 c 2,47,-1
 300 400 l 1,48,-1
 320 400 l 2,49,50
 370 402 370 402 404 422 c 128,-1,51
 438 442 438 442 438 494 c 0,52,53
 438 520 438 520 428 536 c 1,54,55
 420 558 420 558 384 574 c 0,56,57
 348 588 348 588 300 588 c 0,36,37
440 200 m 0,58,59
 440 232 440 232 426 248 c 0,60,61
 398 284 398 284 320 288 c 2,62,-1
 300 288 l 1,63,-1
 284 288 l 2,64,65
 160 280 160 280 160 200 c 1,66,-1
 160 200 l 1,67,68
 160 168 160 168 174 152 c 0,69,70
 204 112 204 112 300 112 c 0,71,72
 440 112 440 112 440 200 c 0,58,59
EndSplineSet
EndChar
StartChar: nine
Encoding: 57 57 26
Width: 528
GlyphClass: 2
Flags: W
Fore
480 184 m 2,0,1
 474 100 474 100 406 48 c 0,2,3
 344 0 344 0 256 0 c 128,-1,4
 168 0 168 0 104 48 c 0,5,6
 76 68 76 68 80 100 c 0,7,8
 84 136 84 136 116 148 c 0,9,10
 146 160 146 160 172 136 c 0,11,12
 204 112 204 112 256 112 c 0,13,14
 306 112 306 112 340 136 c 0,15,16
 368 160 368 160 368 202 c 2,17,-1
 368 316 l 1,18,19
 346 306 346 306 342 304 c 1,20,21
 316 300 316 300 242 292 c 2,22,-1
 232 292 l 2,23,24
 182 290 182 290 134 316 c 0,25,26
 118 324 118 324 102 336 c 0,27,28
 30 392 30 392 30 492 c 0,29,30
 30 534 30 534 44 568 c 0,31,32
 88 688 88 688 232 694 c 2,33,-1
 280 694 l 2,34,35
 364 694 364 694 420 638 c 0,36,37
 480 576 480 576 480 468 c 2,38,-1
 480 184 l 2,0,1
236 404 m 2,39,40
 252 404 252 404 258 404 c 0,41,42
 334 412 334 412 360 434 c 0,43,44
 368 440 368 440 368 444 c 2,45,-1
 368 468 l 2,46,47
 368 530 368 530 340 560 c 0,48,49
 318 582 318 582 280 582 c 2,50,-1
 232 582 l 2,51,52
 200 582 200 582 172 564 c 0,53,54
 140 546 140 546 140 492 c 0,55,56
 140 466 140 466 148 452 c 1,57,58
 156 428 156 428 184 416 c 0,59,60
 206 404 206 404 230 404 c 2,61,-1
 236 404 l 2,39,40
EndSplineSet
EndChar
StartChar: colon
Encoding: 58 58 27
Width: 280
GlyphClass: 2
Flags: W
Fore
120 324 m 0,0,1
 88 328 88 328 76 360 c 0,2,3
 74 368 74 368 74 378 c 2,4,-1
 74 384 l 2,5,6
 74 416 74 416 100 432 c 0,7,8
 128 448 128 448 154 432 c 128,-1,9
 180 416 180 416 180 384 c 2,10,-1
 180 378 l 2,11,12
 180 354 180 354 162 338 c 0,13,14
 144 320 144 320 120 324 c 0,0,1
120 98 m 0,15,16
 88 100 88 100 76 132 c 0,17,18
 74 140 74 140 74 152 c 2,19,-1
 74 160 l 2,20,21
 74 190 74 190 100 204 c 0,22,23
 128 220 128 220 154 204 c 0,24,25
 180 190 180 190 180 160 c 2,26,-1
 180 152 l 2,27,28
 180 128 180 128 162 112 c 0,29,30
 144 94 144 94 120 98 c 0,15,16
EndSplineSet
EndChar
StartChar: semicolon
Encoding: 59 59 28
Width: 276
GlyphClass: 2
Flags: W
Fore
138 212 m 0,0,1
 160 212 160 212 178 196 c 0,2,3
 194 180 194 180 194 156 c 2,4,-1
 194 58 l 2,5,6
 194 24 194 24 166 8 c 0,7,8
 138 -6 138 -6 110 8 c 0,9,10
 82 24 82 24 82 58 c 2,11,-1
 82 156 l 2,12,13
 82 180 82 180 98 196 c 128,-1,14
 114 212 114 212 138 212 c 0,0,1
128 364 m 0,15,16
 96 368 96 368 84 400 c 0,17,18
 80 408 80 408 80 418 c 2,19,-1
 80 424 l 2,20,21
 80 456 80 456 106 472 c 0,22,23
 134 488 134 488 160 472 c 128,-1,24
 186 456 186 456 186 424 c 2,25,-1
 186 418 l 2,26,27
 186 392 186 392 168 378 c 1,28,29
 152 360 152 360 128 364 c 0,15,16
EndSplineSet
EndChar
StartChar: less
Encoding: 60 60 29
Width: 518
GlyphClass: 2
Flags: W
Fore
360 744 m 0,0,1
 396 748 396 748 416 712 c 0,2,3
 432 680 432 680 406 650 c 2,4,-1
 150 372 l 1,5,-1
 406 94 l 2,6,7
 432 68 432 68 416 34 c 0,8,9
 412 24 412 24 402 16 c 0,10,11
 376 -10 376 -10 340 4 c 1,12,13
 332 10 332 10 324 18 c 2,14,-1
 32 334 l 2,15,16
 6 362 6 362 20 396 c 0,17,18
 24 404 24 404 32 410 c 1,19,-1
 324 724 l 2,20,21
 338 744 338 744 360 744 c 0,0,1
EndSplineSet
EndChar
StartChar: equal
Encoding: 61 61 30
Width: 574
GlyphClass: 2
Flags: W
Fore
426 440 m 2,0,-1
 118 440 l 2,1,2
 84 440 84 440 68 466 c 0,3,4
 52 494 52 494 68 522 c 128,-1,5
 84 550 84 550 118 550 c 2,6,-1
 426 550 l 2,7,8
 458 550 458 550 476 522 c 0,9,10
 492 494 492 494 476 466 c 0,11,12
 458 440 458 440 426 440 c 2,0,-1
426 202 m 2,13,-1
 118 202 l 2,14,15
 84 202 84 202 68 230 c 128,-1,16
 52 258 52 258 68 286 c 0,17,18
 84 316 84 316 118 316 c 2,19,-1
 426 316 l 2,20,21
 458 316 458 316 476 286 c 0,22,23
 492 258 492 258 476 230 c 0,24,25
 458 202 458 202 426 202 c 2,13,-1
EndSplineSet
EndChar
StartChar: greater
Encoding: 62 62 31
Width: 520
GlyphClass: 2
Flags: W
Fore
120 740 m 0,0,1
 140 740 140 740 158 720 c 2,2,-1
 448 406 l 1,3,4
 456 400 456 400 460 390 c 0,5,6
 474 358 474 358 448 330 c 2,7,-1
 158 14 l 2,8,9
 150 4 150 4 140 0 c 0,10,11
 104 -16 104 -16 78 10 c 0,12,13
 68 18 68 18 64 28 c 0,14,15
 48 64 48 64 74 90 c 2,16,-1
 332 368 l 1,17,-1
 74 646 l 2,18,19
 48 676 48 676 64 708 c 0,20,21
 84 744 84 744 120 740 c 0,0,1
EndSplineSet
EndChar
StartChar: question
Encoding: 63 63 32
Width: 614
GlyphClass: 2
Flags: W
Fore
200 8 m 0,0,1
 168 12 168 12 158 42 c 0,2,3
 154 52 154 52 154 60 c 2,4,-1
 154 70 l 2,5,6
 154 100 154 100 180 118 c 1,7,8
 208 132 208 132 236 118 c 1,9,10
 260 100 260 100 260 70 c 2,11,-1
 260 60 l 2,12,13
 260 38 260 38 242 22 c 128,-1,14
 224 6 224 6 200 8 c 0,0,1
224 604 m 2,15,16
 184 604 184 604 184 588 c 0,17,18
 184 554 184 554 156 538 c 0,19,20
 128 520 128 520 100 538 c 0,21,22
 72 554 72 554 72 588 c 0,23,24
 72 636 72 636 120 680 c 2,25,26
 122 684 122 684 128 690 c 1,27,28
 168 716 168 716 224 716 c 2,29,-1
 338 716 l 2,30,31
 402 718 402 718 450 680 c 0,32,33
 502 640 502 640 514 556 c 0,34,35
 516 548 516 548 516 540 c 0,36,37
 516 444 516 444 432 396 c 0,38,39
 378 362 378 362 314 362 c 1,40,41
 300 360 300 360 288 356 c 1,42,43
 276 348 276 348 276 342 c 1,44,45
 272 336 272 336 272 320 c 2,46,-1
 272 272 l 2,47,48
 272 240 272 240 244 222 c 0,49,50
 216 206 216 206 186 222 c 0,51,52
 160 240 160 240 160 272 c 2,53,-1
 160 320 l 2,54,55
 160 394 160 394 216 440 c 0,56,57
 226 450 226 450 240 456 c 0,58,59
 278 476 278 476 314 474 c 0,60,61
 348 474 348 474 376 490 c 128,-1,62
 404 506 404 506 404 540 c 0,63,64
 404 578 404 578 382 592 c 0,65,66
 364 604 364 604 338 604 c 2,67,-1
 224 604 l 2,15,16
EndSplineSet
EndChar
StartChar: at
Encoding: 64 64 33
Width: 1000
GlyphClass: 2
Flags: W
Fore
692 -100 m 1,0,-1
 692 -100 l 1,1,2
 638 -102 638 -102 600 -68 c 0,3,4
 560 -30 560 -30 554 42 c 1,5,6
 520 32 520 32 480 26 c 1,7,8
 430 26 430 26 384 56 c 2,9,10
 374 60 374 60 368 68 c 1,11,12
 296 132 296 132 296 252 c 0,13,14
 296 388 296 388 384 448 c 0,15,16
 424 476 424 476 472 476 c 1,17,-1
 472 478 l 1,18,-1
 480 478 l 2,19,20
 540 484 540 484 594 442 c 0,21,22
 662 384 662 384 662 268 c 2,23,-1
 662 80 l 2,24,25
 660 52 660 52 668 32 c 0,26,27
 672 18 672 18 680 12 c 1,28,29
 680 8 680 8 688 8 c 2,30,-1
 692 8 l 1,31,-1
 692 12 l 1,32,33
 700 16 700 16 712 28 c 0,34,35
 764 88 764 88 764 252 c 0,36,37
 764 538 764 538 480 538 c 0,38,39
 384 538 384 538 320 476 c 0,40,41
 236 402 236 402 236 252 c 0,42,43
 236 116 236 116 304 48 c 0,44,45
 328 20 328 20 364 8 c 0,46,47
 376 4 376 4 384 0 c 1,48,49
 414 -24 414 -24 404 -60 c 0,50,51
 402 -72 402 -72 396 -80 c 0,52,53
 372 -110 372 -110 338 -100 c 0,54,55
 278 -84 278 -84 224 -34 c 0,56,57
 124 68 124 68 124 252 c 0,58,59
 128 446 128 446 244 560 c 0,60,61
 342 650 342 650 480 650 c 0,62,63
 630 650 630 650 728 580 c 0,64,65
 740 572 740 572 754 560 c 0,66,67
 876 456 876 456 876 252 c 0,68,69
 876 44 876 44 798 -44 c 0,70,71
 754 -100 754 -100 696 -100 c 2,72,-1
 692 -100 l 1,0,-1
552 268 m 2,73,74
 552 292 552 292 548 310 c 0,75,76
 538 364 538 364 484 368 c 1,77,-1
 484 368 l 1,78,79
 480 368 480 368 480 366 c 1,80,81
 464 366 464 366 444 356 c 1,82,83
 406 328 406 328 406 252 c 2,84,-1
 406 240 l 2,85,86
 410 148 410 148 480 138 c 1,87,88
 500 138 500 138 518 148 c 0,89,90
 524 152 524 152 528 152 c 1,91,92
 552 166 552 166 552 208 c 2,93,-1
 552 268 l 2,73,74
EndSplineSet
EndChar
StartChar: A
Encoding: 65 65 34
Width: 450
GlyphClass: 2
Flags: W
Fore
406 60 m 2,0,1
 406 20 406 20 392 2 c 0,2,3
 376 -16 376 -16 352 -14 c 0,4,5
 316 -12 316 -12 304 20 c 1,6,7
 242 -12 242 -12 168 12 c 0,8,9
 150 20 150 20 134 30 c 0,10,11
 68 72 68 72 50 156 c 0,12,13
 22 288 22 288 84 380 c 0,14,15
 140 456 140 456 230 456 c 0,16,17
 268 456 268 456 306 436 c 0,18,19
 324 426 324 426 340 412 c 0,20,21
 400 358 400 358 406 264 c 2,22,-1
 406 60 l 2,0,1
226 348 m 0,23,24
 216 348 216 348 204 344 c 0,25,26
 164 332 164 332 156 292 c 0,27,28
 140 232 140 232 156 170 c 2,29,30
 156 162 156 162 160 154 c 0,31,32
 176 116 176 116 216 110 c 0,33,34
 240 108 240 108 254 112 c 0,35,36
 294 128 294 128 300 194 c 0,37,38
 302 286 302 286 288 312 c 0,39,40
 266 348 266 348 226 348 c 0,23,24
EndSplineSet
KernsSLIFO: 75 -48 0 0 15 -84 0 0 13 -388 0 0
EndChar
StartChar: B
Encoding: 66 66 35
Width: 472
GlyphClass: 2
Flags: W
Fore
240 0 m 2,0,1
 194 -4 194 -4 148 20 c 0,2,3
 50 76 50 76 50 218 c 2,4,-1
 50 604 l 2,5,6
 50 618 50 618 56 628 c 1,7,8
 68 660 68 660 102 660 c 0,9,10
 124 660 124 660 140 642 c 0,11,12
 156 628 156 628 156 604 c 2,13,-1
 156 454 l 1,14,15
 192 468 192 468 240 474 c 0,16,17
 304 474 304 474 356 428 c 0,18,19
 432 364 432 364 432 238 c 0,20,21
 432 212 432 212 428 190 c 0,22,23
 412 80 412 80 340 32 c 0,24,25
 296 2 296 2 248 0 c 1,26,-1
 248 0 l 1,27,-1
 240 0 l 2,0,1
156 218 m 2,28,29
 156 198 156 198 158 180 c 0,30,31
 168 104 168 104 234 104 c 2,32,-1
 240 104 l 2,33,34
 260 106 260 106 280 120 c 0,35,36
 326 152 326 152 326 238 c 128,-1,37
 326 324 326 324 280 354 c 0,38,39
 264 364 264 364 240 368 c 1,40,41
 218 368 218 368 196 356 c 0,42,43
 188 352 188 352 184 350 c 0,44,45
 156 332 156 332 156 284 c 2,46,-1
 156 218 l 2,28,29
EndSplineSet
KernsSLIFO: 75 -46 0 0 15 -108 0 0 13 -388 0 0
EndChar
StartChar: C
Encoding: 67 67 36
Width: 420
GlyphClass: 2
Flags: W
Fore
242 476 m 0,0,1
 304 476 304 476 354 444 c 0,2,3
 380 426 380 426 380 396 c 0,4,5
 376 364 376 364 348 350 c 0,6,7
 320 338 320 338 296 356 c 1,8,9
 274 368 274 368 242 368 c 0,10,11
 216 368 216 368 192 354 c 0,12,13
 148 324 148 324 148 240 c 2,14,-1
 148 238 l 2,15,16
 148 148 148 148 190 120 c 0,17,18
 212 106 212 106 242 106 c 0,19,20
 274 106 274 106 296 120 c 0,21,22
 320 140 320 140 348 126 c 128,-1,23
 376 112 376 112 380 80 c 0,24,25
 380 48 380 48 354 34 c 0,26,27
 304 0 304 0 242 0 c 128,-1,28
 180 0 180 0 134 32 c 0,29,30
 42 90 42 90 42 240 c 0,31,32
 42 368 42 368 120 432 c 0,33,34
 170 476 170 476 242 476 c 0,0,1
EndSplineSet
KernsSLIFO: 75 -46 0 0 15 -82 0 0 14 -210 0 0 13 -386 0 0
EndChar
StartChar: D
Encoding: 68 68 37
Width: 472
GlyphClass: 2
Flags: W
Fore
424 218 m 2,0,1
 424 180 424 180 416 148 c 0,2,3
 396 56 396 56 328 20 c 0,4,5
 280 -4 280 -4 232 0 c 1,6,-1
 232 0 l 1,7,-1
 228 0 l 1,8,-1
 226 0 l 1,9,-1
 226 0 l 1,10,11
 180 2 180 2 136 32 c 2,12,-1
 120 42 l 1,13,14
 42 110 42 110 42 236 c 0,15,16
 42 380 42 380 136 442 c 0,17,18
 174 468 174 468 232 472 c 0,19,20
 274 472 274 472 318 452 c 1,21,-1
 318 604 l 2,22,23
 318 618 318 618 322 628 c 0,24,25
 336 660 336 660 370 660 c 0,26,27
 394 660 394 660 408 642 c 1,28,29
 424 628 424 628 424 604 c 2,30,-1
 424 218 l 2,0,1
318 282 m 2,31,32
 318 304 318 304 314 320 c 0,33,34
 306 340 306 340 278 356 c 0,35,36
 260 364 260 364 232 368 c 1,37,38
 216 368 216 368 192 354 c 0,39,40
 148 324 148 324 148 236 c 0,41,42
 150 160 150 160 192 120 c 1,43,44
 210 110 210 110 232 104 c 1,45,-1
 240 104 l 2,46,47
 260 102 260 102 278 114 c 1,48,49
 320 132 320 132 318 218 c 2,50,-1
 318 282 l 2,31,32
EndSplineSet
KernsSLIFO: 75 -52 0 0 15 -112 0 0 13 -394 0 0
EndChar
StartChar: E
Encoding: 69 69 38
Width: 460
GlyphClass: 2
Flags: W
Fore
246 110 m 2,0,1
 316 110 316 110 334 122 c 0,2,3
 358 142 358 142 388 132 c 0,4,5
 416 120 416 120 420 88 c 0,6,7
 424 58 424 58 400 40 c 0,8,9
 368 16 368 16 328 6 c 0,10,11
 300 0 300 0 228 2 c 0,12,13
 178 2 178 2 128 36 c 0,14,15
 42 100 42 100 36 230 c 0,16,17
 36 240 36 240 36 252 c 0,18,19
 44 388 44 388 128 446 c 0,20,21
 180 480 180 480 240 480 c 0,22,23
 284 480 284 480 324 460 c 0,24,25
 420 400 420 400 420 260 c 2,26,-1
 420 240 l 2,27,28
 420 230 420 230 416 220 c 0,29,30
 402 188 402 188 366 188 c 2,31,-1
 148 188 l 1,32,33
 162 120 162 120 228 110 c 1,34,-1
 246 110 l 2,0,1
240 372 m 2,35,-1
 236 372 l 1,36,-1
 228 372 l 2,37,38
 208 372 208 372 188 360 c 0,39,40
 156 338 156 338 148 294 c 1,41,-1
 312 294 l 1,42,-1
 312 298 l 1,43,44
 304 348 304 348 272 364 c 0,45,46
 258 372 258 372 240 372 c 2,35,-1
EndSplineSet
KernsSLIFO: 75 -52 0 0 15 -86 0 0 13 -390 0 0
EndChar
StartChar: F
Encoding: 70 70 39
Width: 390
GlyphClass: 2
Flags: W
Fore
284 660 m 2,0,-1
 312 656 l 2,1,2
 342 648 342 648 352 618 c 0,3,4
 360 586 360 586 336 564 c 0,5,6
 314 542 314 542 284 552 c 1,7,-1
 250 556 l 2,8,9
 232 556 232 556 222 544 c 0,10,11
 212 534 212 534 212 504 c 2,12,-1
 212 454 l 1,13,-1
 298 454 l 2,14,15
 328 456 328 456 344 428 c 128,-1,16
 360 400 360 400 344 376 c 0,17,18
 328 348 328 348 298 348 c 2,19,-1
 212 348 l 1,20,-1
 212 52 l 2,21,22
 212 20 212 20 188 4 c 0,23,24
 160 -12 160 -12 132 4 c 0,25,26
 106 20 106 20 106 52 c 2,27,-1
 106 348 l 1,28,-1
 94 348 l 2,29,30
 62 348 62 348 46 376 c 0,31,32
 32 400 32 400 46 428 c 0,33,34
 62 456 62 456 94 454 c 2,35,-1
 106 454 l 1,36,-1
 106 504 l 2,37,38
 106 572 106 572 140 612 c 0,39,40
 168 648 168 648 218 658 c 0,41,42
 250 664 250 664 284 660 c 2,0,-1
EndSplineSet
KernsSLIFO: 75 -42 0 0 15 -218 0 0 14 -118 0 0 13 -520 0 0
EndChar
StartChar: G
Encoding: 71 71 40
Width: 472
GlyphClass: 2
Flags: W
Fore
424 52 m 2,0,1
 424 -92 424 -92 360 -150 c 0,2,3
 340 -164 340 -164 318 -174 c 0,4,5
 288 -184 288 -184 214 -184 c 2,6,-1
 206 -184 l 1,7,-1
 160 -174 l 1,8,9
 158 -174 158 -174 144 -172 c 1,10,11
 98 -158 98 -158 76 -120 c 0,12,13
 60 -96 60 -96 74 -68 c 128,-1,14
 88 -40 88 -40 120 -40 c 0,15,16
 150 -40 150 -40 166 -66 c 1,17,-1
 164 -60 l 1,18,-1
 188 -72 l 1,19,20
 202 -76 202 -76 218 -78 c 0,21,22
 280 -78 280 -78 294 -68 c 0,23,24
 314 -52 314 -52 318 20 c 1,25,26
 280 4 280 4 234 0 c 0,27,28
 184 0 184 0 136 32 c 2,29,-1
 120 44 l 2,30,31
 42 110 42 110 42 238 c 0,32,33
 42 264 42 264 46 288 c 0,34,35
 62 396 62 396 136 444 c 0,36,37
 184 476 184 476 246 476 c 128,-1,38
 308 476 308 476 354 440 c 0,39,40
 424 378 424 378 424 256 c 2,41,-1
 424 52 l 2,0,1
244 370 m 2,42,-1
 240 370 l 1,43,44
 238 368 238 368 234 368 c 0,45,46
 216 368 216 368 194 356 c 0,47,48
 148 324 148 324 148 238 c 2,49,-1
 148 232 l 2,50,51
 150 118 150 118 234 106 c 1,52,53
 258 108 258 108 280 120 c 1,54,-1
 290 122 l 1,55,56
 320 140 320 140 320 192 c 2,57,-1
 320 256 l 2,58,59
 320 340 320 340 278 360 c 1,60,61
 264 370 264 370 244 370 c 2,42,-1
EndSplineSet
KernsSLIFO: 75 62 0 0 15 -88 0 0 13 -392 0 0
EndChar
StartChar: H
Encoding: 72 72 41
Width: 478
GlyphClass: 2
Flags: W
Fore
52 56 m 2,0,-1
 52 608 l 2,1,2
 52 640 52 640 80 658 c 1,3,4
 92 662 92 662 104 662 c 0,5,6
 128 662 128 662 142 648 c 0,7,8
 158 632 158 632 158 608 c 2,9,-1
 158 456 l 1,10,11
 200 476 200 476 242 476 c 0,12,13
 340 476 340 476 392 406 c 0,14,15
 436 352 436 352 434 286 c 2,16,-1
 434 56 l 2,17,18
 436 24 436 24 408 8 c 0,19,20
 380 -6 380 -6 356 8 c 0,21,22
 328 24 328 24 328 56 c 2,23,-1
 328 286 l 2,24,25
 320 354 320 354 280 366 c 0,26,27
 266 372 266 372 242 372 c 0,28,29
 192 372 192 372 176 340 c 128,-1,30
 160 308 160 308 158 286 c 2,31,-1
 158 56 l 2,32,33
 158 16 158 16 120 4 c 0,34,35
 88 -4 88 -4 64 20 c 0,36,37
 52 34 52 34 52 56 c 2,0,-1
EndSplineSet
KernsSLIFO: 75 -50 0 0 15 -84 0 0 13 -388 0 0
EndChar
StartChar: I
Encoding: 73 73 42
Width: 204
GlyphClass: 2
Flags: W
Fore
100 668 m 0,0,1
 122 672 122 672 140 656 c 0,2,3
 158 638 158 638 158 614 c 2,4,-1
 158 606 l 2,5,6
 158 576 158 576 132 560 c 0,7,8
 104 544 104 544 78 560 c 128,-1,9
 52 576 52 576 52 606 c 2,10,-1
 52 614 l 2,11,12
 52 624 52 624 56 632 c 1,13,14
 66 664 66 664 100 668 c 0,0,1
104 476 m 0,15,16
 128 476 128 476 142 460 c 0,17,18
 158 444 158 444 158 422 c 2,19,-1
 158 54 l 2,20,21
 158 24 158 24 132 8 c 0,22,23
 104 -8 104 -8 78 8 c 128,-1,24
 52 24 52 24 52 54 c 2,25,-1
 52 422 l 2,26,27
 52 434 52 434 58 444 c 1,28,29
 70 476 70 476 104 476 c 0,15,16
EndSplineSet
KernsSLIFO: 75 -52 0 0 15 -88 0 0 13 -392 0 0
EndChar
StartChar: J
Encoding: 74 74 43
Width: 270
GlyphClass: 2
Flags: W
Fore
156 664 m 0,0,1
 180 664 180 664 196 650 c 0,2,3
 212 632 212 632 210 610 c 2,4,-1
 210 600 l 2,5,6
 212 572 212 572 184 556 c 0,7,8
 160 540 160 540 132 556 c 128,-1,9
 104 572 104 572 104 600 c 2,10,-1
 104 610 l 2,11,12
 104 622 104 622 110 632 c 0,13,14
 124 662 124 662 156 664 c 0,0,1
156 480 m 0,15,16
 180 480 180 480 196 464 c 128,-1,17
 212 448 212 448 210 426 c 2,18,-1
 210 -28 l 2,19,20
 210 -94 210 -94 178 -136 c 0,21,22
 132 -188 132 -188 44 -184 c 1,23,-1
 4 -176 l 2,24,25
 -24 -170 -24 -170 -32 -140 c 128,-1,26
 -40 -110 -40 -110 -20 -88 c 0,27,28
 4 -66 4 -66 36 -76 c 0,29,30
 80 -86 80 -86 96 -68 c 0,31,32
 104 -56 104 -56 104 -28 c 2,33,-1
 104 426 l 2,34,35
 104 440 104 440 110 448 c 1,36,37
 124 480 124 480 156 480 c 0,15,16
EndSplineSet
KernsSLIFO: 75 64 0 0 28 -40 0 0 15 -100 0 0 13 -404 0 0
EndChar
StartChar: K
Encoding: 75 75 44
Width: 436
GlyphClass: 2
Flags: W
Fore
90 670 m 0,0,1
 112 670 112 670 128 654 c 128,-1,2
 144 638 144 638 144 616 c 2,3,-1
 144 322 l 1,4,-1
 314 484 l 2,5,6
 340 508 340 508 374 494 c 0,7,8
 382 490 382 490 390 482 c 0,9,10
 414 456 414 456 400 424 c 0,11,12
 394 414 394 414 388 406 c 1,13,-1
 264 290 l 1,14,-1
 414 86 l 2,15,16
 436 56 436 56 416 26 c 0,17,18
 410 18 410 18 402 12 c 0,19,20
 374 -10 374 -10 342 10 c 0,21,22
 334 14 334 14 328 22 c 2,23,-1
 186 216 l 1,24,-1
 144 176 l 1,25,-1
 144 54 l 2,26,27
 144 24 144 24 118 8 c 0,28,29
 90 -8 90 -8 64 8 c 128,-1,30
 38 24 38 24 38 54 c 2,31,-1
 38 616 l 2,32,33
 38 650 38 650 68 664 c 0,34,35
 78 670 78 670 90 670 c 0,0,1
EndSplineSet
KernsSLIFO: 15 -74 0 0 14 -72 0 0 13 -378 0 0
EndChar
StartChar: L
Encoding: 76 76 45
Width: 202
GlyphClass: 2
Flags: W
Fore
156 600 m 2,0,-1
 156 52 l 2,1,2
 156 42 156 42 152 32 c 0,3,4
 138 2 138 2 104 2 c 0,5,6
 92 2 92 2 82 6 c 0,7,8
 52 20 52 20 52 52 c 2,9,-1
 52 600 l 2,10,11
 52 614 52 614 56 624 c 0,12,13
 72 654 72 654 104 654 c 0,14,15
 116 654 116 654 124 650 c 0,16,17
 156 636 156 636 156 600 c 2,0,-1
EndSplineSet
KernsSLIFO: 75 -52 0 0 15 -88 0 0 13 -392 0 0
EndChar
StartChar: M
Encoding: 77 77 46
Width: 628
GlyphClass: 2
Flags: W
Fore
203 478 m 0,0,1
 271 478 271 478 319 436 c 1,2,3
 367 478 367 478 433 478 c 0,4,5
 517 478 517 478 565 418 c 0,6,7
 603 372 603 372 601 314 c 2,8,-1
 601 56 l 2,9,10
 601 26 601 26 575 10 c 128,-1,11
 549 -6 549 -6 521 10 c 0,12,13
 495 26 495 26 495 56 c 2,14,-1
 495 314 l 2,15,16
 489 357 489 357 463 368 c 0,17,18
 453 372 453 372 433 372 c 0,19,20
 395 372 395 372 383 352 c 0,21,22
 373 334 373 334 371 314 c 2,23,-1
 371 203 l 2,24,25
 371 173 371 173 345 157 c 128,-1,26
 319 141 319 141 291 157 c 0,27,28
 265 171 265 171 265 203 c 2,29,-1
 265 314 l 2,30,31
 259 357 259 357 233 368 c 0,32,33
 223 372 223 372 203 372 c 0,34,35
 167 372 167 372 155 352 c 0,36,37
 143 331 143 331 141 314 c 2,38,-1
 141 56 l 2,39,40
 143 26 143 26 115 10 c 0,41,42
 89 -6 89 -6 61 10 c 0,43,44
 35 26 35 26 35 56 c 2,45,-1
 35 314 l 2,46,47
 43 438 43 438 147 470 c 0,48,49
 173 478 173 478 203 478 c 0,0,1
EndSplineSet
KernsSLIFO: 75 -52 0 0 15 -86 0 0 13 -390 0 0
EndChar
StartChar: N
Encoding: 78 78 47
Width: 466
GlyphClass: 2
Flags: W
Fore
48 280 m 2,0,1
 48 350 48 350 90 402 c 0,2,3
 140 466 140 466 236 466 c 0,4,5
 380 452 380 452 414 336 c 0,6,7
 420 310 420 310 422 280 c 2,8,-1
 422 52 l 2,9,10
 422 20 422 20 392 6 c 0,11,12
 380 0 380 0 370 0 c 0,13,14
 336 0 336 0 324 32 c 0,15,16
 320 42 320 42 320 52 c 2,17,-1
 320 280 l 2,18,19
 316 354 316 354 236 362 c 0,20,21
 168 362 168 362 154 298 c 0,22,23
 152 288 152 288 152 280 c 2,24,-1
 152 52 l 2,25,26
 152 20 152 20 120 6 c 1,27,28
 112 0 112 0 100 0 c 0,29,30
 66 0 66 0 52 32 c 0,31,32
 48 42 48 42 48 52 c 2,33,-1
 48 280 l 2,0,1
EndSplineSet
KernsSLIFO: 75 -50 0 0 15 -84 0 0 13 -388 0 0
EndChar
StartChar: O
Encoding: 79 79 48
Width: 482
GlyphClass: 2
Flags: W
Fore
242 474 m 0,0,1
 306 474 306 474 354 442 c 0,2,3
 444 374 444 374 444 238 c 0,4,5
 444 92 444 92 354 32 c 0,6,7
 304 0 304 0 242 0 c 0,8,9
 172 0 172 0 118 40 c 0,10,11
 42 104 42 104 44 238 c 0,12,13
 44 380 44 380 134 440 c 0,14,15
 182 474 182 474 242 474 c 0,0,1
148 230 m 2,16,17
 148 104 148 104 242 104 c 0,18,19
 340 104 340 104 340 238 c 0,20,21
 340 368 340 368 242 368 c 0,22,23
 216 368 216 368 192 352 c 0,24,25
 148 324 148 324 148 238 c 2,26,-1
 148 230 l 2,16,17
EndSplineSet
KernsSLIFO: 75 -46 0 0 15 -106 0 0 13 -388 0 0
EndChar
StartChar: P
Encoding: 80 80 49
Width: 468
GlyphClass: 2
Flags: W
Fore
244 474 m 1,0,-1
 244 472 l 1,1,2
 294 472 294 472 336 442 c 0,3,4
 428 380 428 380 428 238 c 0,5,6
 428 212 428 212 426 190 c 0,7,8
 410 82 410 82 336 32 c 0,9,10
 296 6 296 6 238 0 c 0,11,12
 196 0 196 0 152 20 c 1,13,-1
 152 -132 l 2,14,15
 152 -162 152 -162 128 -178 c 0,16,17
 100 -194 100 -194 72 -178 c 0,18,19
 48 -162 48 -162 48 -132 c 2,20,-1
 48 256 l 2,21,22
 48 292 48 292 56 324 c 0,23,24
 76 418 76 418 144 454 c 0,25,26
 188 478 188 478 238 474 c 2,27,-1
 244 474 l 1,0,-1
152 192 m 2,28,29
 152 168 152 168 158 152 c 0,30,31
 172 116 172 116 238 106 c 1,32,33
 258 106 258 106 278 120 c 0,34,35
 322 152 322 152 322 238 c 0,36,37
 322 336 322 336 260 364 c 1,38,-1
 238 368 l 2,39,40
 236 368 236 368 232 368 c 0,41,42
 212 370 212 370 194 360 c 0,43,44
 152 340 152 340 152 256 c 2,45,-1
 152 192 l 2,28,29
EndSplineSet
KernsSLIFO: 75 -46 0 0 15 -108 0 0 13 -388 0 0
EndChar
StartChar: Q
Encoding: 81 81 50
Width: 492
GlyphClass: 2
Flags: W
Fore
226 474 m 1,0,-1
 232 474 l 2,1,2
 284 478 284 478 328 454 c 0,3,4
 396 418 396 418 416 324 c 0,5,6
 424 292 424 292 424 256 c 2,7,-1
 424 -132 l 2,8,9
 424 -162 424 -162 400 -178 c 0,10,11
 372 -194 372 -194 344 -178 c 0,12,13
 318 -162 318 -162 318 -132 c 2,14,-1
 318 20 l 1,15,16
 274 0 274 0 232 0 c 0,17,18
 176 6 176 6 136 32 c 0,19,20
 42 96 42 96 42 238 c 128,-1,21
 42 380 42 380 136 442 c 0,22,23
 180 472 180 472 226 472 c 1,24,-1
 226 474 l 1,0,-1
318 192 m 2,25,-1
 318 256 l 2,26,27
 320 340 320 340 278 360 c 0,28,29
 260 370 260 370 240 368 c 2,30,-1
 232 368 l 1,31,-1
 212 364 l 1,32,33
 202 360 202 360 192 354 c 0,34,35
 148 324 148 324 148 238 c 128,-1,36
 148 152 148 152 192 120 c 0,37,38
 216 106 216 106 232 106 c 1,39,40
 260 110 260 110 278 120 c 0,41,42
 306 132 306 132 314 152 c 0,43,44
 318 168 318 168 318 192 c 2,25,-1
EndSplineSet
KernsSLIFO: 75 66 0 0 28 -50 0 0 27 -40 0 0 15 -108 0 0 13 -412 0 0
EndChar
StartChar: R
Encoding: 82 82 51
Width: 404
GlyphClass: 2
Flags: W
Fore
228 476 m 0,0,1
 340 476 340 476 396 378 c 0,2,3
 412 348 412 348 396 320 c 0,4,5
 380 294 380 294 344 296 c 0,6,7
 316 300 316 300 300 330 c 0,8,9
 288 358 288 358 264 364 c 0,10,11
 252 368 252 368 228 368 c 0,12,13
 178 368 178 368 160 340 c 0,14,15
 158 336 158 336 154 330 c 1,16,17
 144 308 144 308 142 284 c 2,18,-1
 142 54 l 2,19,20
 142 24 142 24 118 8 c 0,21,22
 90 -8 90 -8 64 8 c 128,-1,23
 38 24 38 24 38 54 c 2,24,-1
 38 284 l 2,25,26
 48 422 48 422 160 462 c 0,27,28
 192 476 192 476 228 476 c 0,0,1
EndSplineSet
KernsSLIFO: 75 -42 0 0 15 -338 0 0 13 -640 0 0
EndChar
StartChar: S
Encoding: 83 83 52
Width: 414
GlyphClass: 2
Flags: W
Fore
198 478 m 2,0,1
 256 478 256 478 298 456 c 0,2,3
 366 418 366 418 356 370 c 0,4,5
 352 340 352 340 318 330 c 0,6,7
 288 322 288 322 268 344 c 1,8,9
 240 386 240 386 178 378 c 0,10,11
 174 378 174 378 172 376 c 1,12,13
 138 372 138 372 126 342 c 0,14,15
 120 326 120 326 130 308 c 1,16,17
 154 292 154 292 208 294 c 0,18,19
 240 294 240 294 256 290 c 1,20,21
 320 284 320 284 360 226 c 0,22,23
 386 190 386 190 384 148 c 0,24,25
 386 84 386 84 332 42 c 0,26,27
 310 26 310 26 286 18 c 0,28,29
 180 -16 180 -16 98 18 c 0,30,31
 32 50 32 50 20 94 c 0,32,33
 12 128 12 128 46 148 c 0,34,35
 78 168 78 168 104 146 c 1,36,37
 108 144 108 144 110 142 c 0,38,39
 144 98 144 98 230 112 c 0,40,41
 264 114 264 114 276 138 c 0,42,43
 284 152 284 152 276 168 c 1,44,45
 258 188 258 188 212 188 c 0,46,47
 112 184 112 184 66 228 c 0,48,49
 16 270 16 270 20 338 c 0,50,51
 20 382 20 382 46 416 c 0,52,53
 92 480 92 480 194 478 c 2,54,-1
 198 478 l 2,0,1
EndSplineSet
KernsSLIFO: 75 -48 0 0 15 -88 0 0 13 -386 0 0
EndChar
StartChar: T
Encoding: 84 84 53
Width: 346
GlyphClass: 2
Flags: W
Fore
148 664 m 0,0,1
 172 664 172 664 188 648 c 128,-1,2
 204 632 204 632 202 610 c 2,3,-1
 202 472 l 1,4,-1
 268 472 l 2,5,6
 300 472 300 472 316 444 c 0,7,8
 332 420 332 420 316 392 c 128,-1,9
 300 364 300 364 268 366 c 2,10,-1
 202 366 l 1,11,-1
 202 158 l 2,12,13
 202 128 202 128 212 118 c 1,14,15
 218 110 218 110 232 108 c 1,16,17
 248 102 248 102 272 110 c 0,18,19
 304 120 304 120 328 96 c 0,20,21
 348 76 348 76 340 44 c 0,22,23
 332 14 332 14 302 6 c 2,24,-1
 264 0 l 2,25,26
 176 -6 176 -6 132 48 c 0,27,28
 96 90 96 90 96 158 c 2,29,-1
 96 366 l 1,30,-1
 64 366 l 2,31,32
 32 364 32 364 18 392 c 0,33,34
 2 420 2 420 18 444 c 0,35,36
 32 472 32 472 64 472 c 2,37,-1
 96 472 l 1,38,-1
 96 610 l 2,39,40
 96 642 96 642 124 660 c 1,41,42
 136 664 136 664 148 664 c 0,0,1
EndSplineSet
KernsSLIFO: 75 -40 0 0 15 -76 0 0 14 -116 0 0 13 -380 0 0
EndChar
StartChar: U
Encoding: 85 85 54
Width: 476
GlyphClass: 2
Flags: W
Fore
100 476 m 0,0,1
 122 476 122 476 140 460 c 0,2,3
 156 444 156 444 156 420 c 2,4,-1
 156 192 l 2,5,6
 156 164 156 164 166 146 c 0,7,8
 180 120 180 120 200 112 c 0,9,10
 218 106 218 106 240 106 c 0,11,12
 290 106 290 106 308 136 c 2,13,-1
 314 146 l 2,14,15
 324 168 324 168 324 192 c 2,16,-1
 324 420 l 2,17,18
 324 452 324 452 352 468 c 128,-1,19
 380 484 380 484 404 468 c 0,20,21
 432 452 432 452 432 420 c 2,22,-1
 432 192 l 2,23,24
 420 54 420 54 308 12 c 0,25,26
 276 0 276 0 240 0 c 0,27,28
 144 0 144 0 90 72 c 0,29,30
 80 84 80 84 72 98 c 0,31,32
 48 144 48 144 48 192 c 2,33,-1
 48 420 l 2,34,35
 48 456 48 456 78 470 c 0,36,37
 88 476 88 476 100 476 c 0,0,1
EndSplineSet
KernsSLIFO: 75 -50 0 0 15 -108 0 0 13 -392 0 0
EndChar
StartChar: V
Encoding: 86 86 55
Width: 456
GlyphClass: 2
Flags: W
Fore
70 484 m 1,0,1
 104 486 104 486 120 456 c 2,2,-1
 124 448 l 1,3,4
 168 258 168 258 204 170 c 2,5,-1
 220 138 l 2,6,7
 224 132 224 132 228 144 c 0,8,9
 272 238 272 238 322 428 c 1,10,11
 326 468 326 468 358 480 c 2,12,-1
 366 484 l 1,13,14
 400 492 400 492 424 462 c 0,15,16
 440 444 440 444 436 422 c 0,17,18
 414 324 414 324 376 208 c 0,19,20
 336 98 336 98 310 58 c 0,21,22
 302 46 302 46 294 36 c 0,23,24
 266 -2 266 -2 220 0 c 0,25,26
 210 0 210 0 200 4 c 0,27,28
 150 20 150 20 112 100 c 1,29,30
 108 106 108 106 106 114 c 2,31,32
 58 226 58 226 16 416 c 0,33,34
 8 450 8 450 38 474 c 0,35,36
 52 486 52 486 70 484 c 1,0,1
EndSplineSet
KernsSLIFO: 15 -192 0 0 13 -452 0 0
EndChar
StartChar: W
Encoding: 87 87 56
Width: 620
GlyphClass: 2
Flags: W
Fore
86 474 m 1,0,1
 116 476 116 476 132 448 c 0,2,3
 138 438 138 438 138 426 c 2,4,-1
 138 220 l 1,5,-1
 140 156 l 2,6,7
 142 142 142 142 148 130 c 0,8,9
 160 100 160 100 220 106 c 0,10,11
 252 108 252 108 260 154 c 1,12,13
 262 156 262 156 262 158 c 2,14,-1
 264 248 l 1,15,-1
 264 252 l 1,16,17
 270 280 270 280 302 290 c 0,18,19
 328 296 328 296 348 280 c 0,20,21
 370 264 370 264 368 220 c 2,22,-1
 370 156 l 2,23,24
 372 142 372 142 378 130 c 0,25,26
 388 104 388 104 450 106 c 0,27,28
 482 108 482 108 490 154 c 1,29,30
 492 158 492 158 492 160 c 2,31,-1
 492 406 l 2,32,33
 488 452 488 452 518 468 c 0,34,35
 546 486 546 486 576 464 c 0,36,37
 596 450 596 450 598 428 c 2,38,-1
 598 192 l 2,39,40
 602 106 602 106 560 56 c 0,41,42
 512 -2 512 -2 430 -2 c 0,43,44
 362 0 362 0 316 42 c 1,45,46
 258 -10 258 -10 178 0 c 0,47,48
 144 4 144 4 116 20 c 0,49,50
 54 52 54 52 38 124 c 0,51,52
 34 138 34 138 34 152 c 2,53,-1
 34 412 l 1,54,55
 28 446 28 446 56 466 c 0,56,57
 70 476 70 476 86 474 c 1,0,1
EndSplineSet
KernsSLIFO: 75 -52 0 0 15 -100 0 0 13 -392 0 0
EndChar
StartChar: X
Encoding: 88 88 57
Width: 496
GlyphClass: 2
Flags: W
Fore
74 476 m 0,0,1
 100 476 100 476 116 456 c 2,2,-1
 224 322 l 1,3,-1
 332 456 l 2,4,5
 352 480 352 480 382 476 c 0,6,7
 412 470 412 470 424 442 c 0,8,9
 434 414 434 414 414 390 c 2,10,-1
 292 238 l 1,11,-1
 414 88 l 2,12,13
 434 64 434 64 424 34 c 0,14,15
 412 6 412 6 382 2 c 0,16,17
 352 -4 352 -4 332 20 c 2,18,-1
 224 154 l 1,19,-1
 116 20 l 2,20,21
 96 -4 96 -4 66 2 c 0,22,23
 36 6 36 6 24 34 c 0,24,25
 14 64 14 64 34 88 c 2,26,-1
 156 238 l 1,27,-1
 34 390 l 2,28,29
 12 416 12 416 26 446 c 128,-1,30
 40 476 40 476 74 476 c 0,0,1
EndSplineSet
KernsSLIFO: 75 -44 0 0 15 -80 0 0 14 -88 0 0 13 -384 0 0
EndChar
StartChar: Y
Encoding: 89 89 58
Width: 482
GlyphClass: 2
Flags: W
Fore
432 422 m 2,0,-1
 432 30 l 2,1,2
 432 -90 432 -90 380 -140 c 0,3,4
 338 -184 338 -184 242 -184 c 0,5,6
 150 -196 150 -196 74 -150 c 0,7,8
 48 -134 48 -134 48 -104 c 0,9,10
 48 -72 48 -72 76 -58 c 0,11,12
 102 -42 102 -42 128 -60 c 0,13,14
 160 -78 160 -78 236 -78 c 2,15,-1
 240 -78 l 2,16,17
 292 -78 292 -78 306 -64 c 0,18,19
 324 -48 324 -48 324 20 c 1,20,21
 268 -8 268 -8 204 4 c 0,22,23
 76 38 76 38 52 188 c 0,24,25
 48 212 48 212 48 238 c 2,26,-1
 48 422 l 2,27,28
 48 458 48 458 80 472 c 0,29,30
 88 476 88 476 100 476 c 0,31,32
 124 476 124 476 140 460 c 128,-1,33
 156 444 156 444 156 422 c 2,34,-1
 156 238 l 2,35,36
 156 152 156 152 200 120 c 0,37,38
 220 106 220 106 240 106 c 0,39,40
 266 108 266 108 284 120 c 2,41,42
 312 132 312 132 320 152 c 0,43,44
 324 168 324 168 324 192 c 2,45,-1
 324 422 l 2,46,47
 324 452 324 452 352 470 c 0,48,49
 380 484 380 484 404 470 c 0,50,51
 432 452 432 452 432 422 c 2,0,-1
EndSplineSet
KernsSLIFO: 75 64 0 0 15 -92 0 0 13 -396 0 0
EndChar
StartChar: Z
Encoding: 90 90 59
Width: 434
GlyphClass: 2
Flags: W
Fore
74 466 m 2,0,-1
 350 466 l 2,1,2
 382 466 382 466 396 436 c 0,3,4
 412 408 412 408 392 380 c 2,5,-1
 182 106 l 1,6,-1
 350 106 l 2,7,8
 380 106 380 106 396 80 c 128,-1,9
 412 54 412 54 396 26 c 0,10,11
 380 0 380 0 350 0 c 2,12,-1
 74 0 l 2,13,14
 42 0 42 0 26 30 c 0,15,16
 12 60 12 60 32 86 c 2,17,-1
 242 360 l 1,18,-1
 74 360 l 2,19,20
 44 360 44 360 28 386 c 0,21,22
 12 414 12 414 28 440 c 128,-1,23
 44 466 44 466 74 466 c 2,0,-1
EndSplineSet
KernsSLIFO: 75 -40 0 0 15 -76 0 0 14 -86 0 0 13 -380 0 0
EndChar
StartChar: bracketleft
Encoding: 91 91 60
Width: 426
GlyphClass: 2
Flags: W
Fore
114 744 m 2,0,-1
 264 744 l 2,1,2
 298 746 298 746 314 718 c 128,-1,3
 330 690 330 690 314 660 c 0,4,5
 298 632 298 632 264 632 c 2,6,-1
 176 632 l 1,7,-1
 176 114 l 1,8,-1
 264 114 l 2,9,10
 298 114 298 114 314 84 c 0,11,12
 330 56 330 56 314 28 c 128,-1,13
 298 0 298 0 264 0 c 2,14,-1
 120 0 l 2,15,16
 84 0 84 0 68 32 c 0,17,18
 62 44 62 44 62 56 c 2,19,-1
 62 690 l 2,20,21
 62 724 62 724 96 740 c 0,22,23
 104 744 104 744 114 744 c 2,0,-1
EndSplineSet
EndChar
StartChar: backslash
Encoding: 92 92 61
Width: 1000
GlyphClass: 2
Flags: W
Fore
286 696 m 0,0,1
 310 694 310 694 328 672 c 2,2,-1
 764 88 l 1,3,4
 772 80 772 80 774 68 c 0,5,6
 782 32 782 32 752 10 c 1,7,8
 744 2 744 2 732 0 c 0,9,10
 696 -8 696 -8 676 20 c 2,11,-1
 236 604 l 2,12,13
 216 634 216 634 232 666 c 0,14,15
 250 700 250 700 286 696 c 0,0,1
EndSplineSet
EndChar
StartChar: bracketright
Encoding: 93 93 62
Width: 430
GlyphClass: 2
Flags: W
Fore
284 744 m 2,0,1
 292 744 292 744 300 740 c 0,2,3
 334 724 334 724 334 690 c 2,4,-1
 334 56 l 2,5,6
 334 44 334 44 328 32 c 0,7,8
 312 0 312 0 280 0 c 2,9,-1
 132 0 l 2,10,11
 100 0 100 0 82 28 c 128,-1,12
 64 56 64 56 82 84 c 0,13,14
 100 114 100 114 132 114 c 2,15,-1
 220 114 l 1,16,-1
 220 632 l 1,17,-1
 132 632 l 2,18,19
 100 632 100 632 82 660 c 0,20,21
 64 690 64 690 82 718 c 128,-1,22
 100 746 100 746 132 744 c 2,23,-1
 284 744 l 2,0,1
EndSplineSet
EndChar
StartChar: asciicircum
Encoding: 94 94 63
Width: 526
GlyphClass: 2
Flags: W
Fore
240 800 m 1,0,1
 266 804 266 804 284 786 c 2,2,-1
 432 640 l 2,3,4
 456 618 456 618 448 584 c 0,5,6
 440 552 440 552 408 544 c 128,-1,7
 376 536 376 536 352 560 c 2,8,-1
 246 668 l 1,9,-1
 140 560 l 2,10,11
 118 536 118 536 84 544 c 0,12,13
 52 552 52 552 44 584 c 0,14,15
 36 618 36 618 60 640 c 2,16,-1
 206 786 l 2,17,18
 220 800 220 800 240 800 c 1,0,1
EndSplineSet
EndChar
StartChar: underscore
Encoding: 95 95 64
Width: 596
GlyphClass: 2
Flags: W
Fore
478 0 m 2,0,-1
 88 0 l 2,1,2
 56 0 56 0 40 28 c 0,3,4
 22 56 22 56 40 84 c 0,5,6
 56 112 56 112 88 112 c 2,7,-1
 478 112 l 2,8,9
 510 112 510 112 526 84 c 128,-1,10
 542 56 542 56 526 28 c 128,-1,11
 510 0 510 0 478 0 c 2,0,-1
EndSplineSet
EndChar
StartChar: grave
Encoding: 96 96 65
Width: 450
GlyphClass: 2
Flags: W
Fore
283.076 533.453 m 6,0,-1
 107.863 606.941 l 6,1,2
 76.5098 620.089 76.5098 620.089 72.584 652.101 c 132,-1,3
 68.6602 684.108 68.6602 684.108 94.2432 703.742 c 4,4,5
 121.674 722.601 121.674 722.601 151.183 710.223 c 6,6,-1
 326.396 636.737 l 6,7,8
 355.903 624.359 355.903 624.359 359.831 592.35 c 132,-1,9
 363.754 560.342 363.754 560.342 338.17 540.709 c 132,-1,10
 312.586 521.076 312.586 521.076 283.076 533.453 c 6,0,-1
EndSplineSet
EndChar
StartChar: a
Encoding: 97 97 66
Width: 450
GlyphClass: 2
Flags: W
Fore
406 60 m 2,0,1
 406 20 406 20 392 2 c 0,2,3
 376 -16 376 -16 352 -14 c 0,4,5
 316 -12 316 -12 304 20 c 1,6,7
 242 -12 242 -12 168 12 c 0,8,9
 150 20 150 20 134 30 c 0,10,11
 68 72 68 72 50 156 c 0,12,13
 22 288 22 288 84 380 c 0,14,15
 140 456 140 456 230 456 c 0,16,17
 268 456 268 456 306 436 c 0,18,19
 324 426 324 426 340 412 c 0,20,21
 400 358 400 358 406 264 c 2,22,-1
 406 60 l 2,0,1
226 348 m 0,23,24
 216 348 216 348 204 344 c 0,25,26
 164 332 164 332 156 292 c 0,27,28
 140 232 140 232 156 170 c 2,29,30
 156 162 156 162 160 154 c 0,31,32
 176 116 176 116 216 110 c 0,33,34
 240 108 240 108 254 112 c 0,35,36
 294 128 294 128 300 194 c 0,37,38
 302 286 302 286 288 312 c 0,39,40
 266 348 266 348 226 348 c 0,23,24
EndSplineSet
KernsSLIFO: 75 -48 0 0 15 -84 0 0 13 -388 0 0
EndChar
StartChar: b
Encoding: 98 98 67
Width: 472
GlyphClass: 2
Flags: W
Fore
240 0 m 2,0,1
 194 -4 194 -4 148 20 c 0,2,3
 50 76 50 76 50 218 c 2,4,-1
 50 604 l 2,5,6
 50 618 50 618 56 628 c 1,7,8
 68 660 68 660 102 660 c 0,9,10
 124 660 124 660 140 642 c 0,11,12
 156 628 156 628 156 604 c 2,13,-1
 156 454 l 1,14,15
 192 468 192 468 240 474 c 0,16,17
 304 474 304 474 356 428 c 0,18,19
 432 364 432 364 432 238 c 0,20,21
 432 212 432 212 428 190 c 0,22,23
 412 80 412 80 340 32 c 0,24,25
 296 2 296 2 248 0 c 1,26,-1
 248 0 l 1,27,-1
 240 0 l 2,0,1
156 218 m 2,28,29
 156 198 156 198 158 180 c 0,30,31
 168 104 168 104 234 104 c 2,32,-1
 240 104 l 2,33,34
 260 106 260 106 280 120 c 0,35,36
 326 152 326 152 326 238 c 128,-1,37
 326 324 326 324 280 354 c 0,38,39
 264 364 264 364 240 368 c 1,40,41
 218 368 218 368 196 356 c 0,42,43
 188 352 188 352 184 350 c 0,44,45
 156 332 156 332 156 284 c 2,46,-1
 156 218 l 2,28,29
EndSplineSet
KernsSLIFO: 75 -46 0 0 15 -108 0 0 13 -388 0 0
EndChar
StartChar: c
Encoding: 99 99 68
Width: 420
GlyphClass: 2
Flags: W
Fore
242 476 m 0,0,1
 304 476 304 476 354 444 c 0,2,3
 380 426 380 426 380 396 c 0,4,5
 376 364 376 364 348 350 c 0,6,7
 320 338 320 338 296 356 c 1,8,9
 274 368 274 368 242 368 c 0,10,11
 216 368 216 368 192 354 c 0,12,13
 148 324 148 324 148 240 c 2,14,-1
 148 238 l 2,15,16
 148 148 148 148 190 120 c 0,17,18
 212 106 212 106 242 106 c 0,19,20
 274 106 274 106 296 120 c 0,21,22
 320 140 320 140 348 126 c 128,-1,23
 376 112 376 112 380 80 c 0,24,25
 380 48 380 48 354 34 c 0,26,27
 304 0 304 0 242 0 c 128,-1,28
 180 0 180 0 134 32 c 0,29,30
 42 90 42 90 42 240 c 0,31,32
 42 368 42 368 120 432 c 0,33,34
 170 476 170 476 242 476 c 0,0,1
EndSplineSet
KernsSLIFO: 75 -46 0 0 15 -82 0 0 14 -210 0 0 13 -386 0 0
EndChar
StartChar: d
Encoding: 100 100 69
Width: 472
GlyphClass: 2
Flags: W
Fore
424 218 m 2,0,1
 424 180 424 180 416 148 c 0,2,3
 396 56 396 56 328 20 c 0,4,5
 280 -4 280 -4 232 0 c 1,6,-1
 232 0 l 1,7,-1
 228 0 l 1,8,-1
 226 0 l 1,9,-1
 226 0 l 1,10,11
 180 2 180 2 136 32 c 2,12,-1
 120 42 l 1,13,14
 42 110 42 110 42 236 c 0,15,16
 42 380 42 380 136 442 c 0,17,18
 174 468 174 468 232 472 c 0,19,20
 274 472 274 472 318 452 c 1,21,-1
 318 604 l 2,22,23
 318 618 318 618 322 628 c 0,24,25
 336 660 336 660 370 660 c 0,26,27
 394 660 394 660 408 642 c 1,28,29
 424 628 424 628 424 604 c 2,30,-1
 424 218 l 2,0,1
318 282 m 2,31,32
 318 304 318 304 314 320 c 0,33,34
 306 340 306 340 278 356 c 0,35,36
 260 364 260 364 232 368 c 1,37,38
 216 368 216 368 192 354 c 0,39,40
 148 324 148 324 148 236 c 0,41,42
 150 160 150 160 192 120 c 1,43,44
 210 110 210 110 232 104 c 1,45,-1
 240 104 l 2,46,47
 260 102 260 102 278 114 c 1,48,49
 320 132 320 132 318 218 c 2,50,-1
 318 282 l 2,31,32
EndSplineSet
KernsSLIFO: 75 -52 0 0 15 -112 0 0 13 -394 0 0
EndChar
StartChar: e
Encoding: 101 101 70
Width: 470
GlyphClass: 2
Flags: W
Fore
252 110 m 2,0,1
 322 110 322 110 340 122 c 0,2,3
 364 142 364 142 394 132 c 0,4,5
 420 120 420 120 424 88 c 0,6,7
 430 58 430 58 404 40 c 0,8,9
 376 16 376 16 334 6 c 0,10,11
 304 0 304 0 234 2 c 0,12,13
 184 2 184 2 136 36 c 0,14,15
 48 100 48 100 42 230 c 1,16,17
 40 240 40 240 42 252 c 0,18,19
 48 388 48 388 136 446 c 0,20,21
 184 480 184 480 246 480 c 0,22,23
 292 480 292 480 328 460 c 0,24,25
 424 400 424 400 424 260 c 2,26,-1
 424 240 l 2,27,28
 424 230 424 230 420 220 c 0,29,30
 408 188 408 188 372 188 c 2,31,-1
 154 188 l 1,32,33
 168 120 168 120 234 110 c 1,34,-1
 252 110 l 2,0,1
244 372 m 2,35,-1
 240 372 l 1,36,-1
 234 372 l 2,37,38
 216 372 216 372 194 360 c 0,39,40
 162 338 162 338 154 294 c 1,41,-1
 318 294 l 1,42,-1
 318 298 l 1,43,44
 310 348 310 348 278 364 c 0,45,46
 264 372 264 372 244 372 c 2,35,-1
EndSplineSet
KernsSLIFO: 75 -52 0 0 15 -86 0 0 13 -390 0 0
EndChar
StartChar: f
Encoding: 102 102 71
Width: 390
GlyphClass: 2
Flags: W
Fore
284 660 m 2,0,-1
 312 656 l 2,1,2
 342 648 342 648 352 618 c 0,3,4
 360 586 360 586 336 564 c 0,5,6
 314 542 314 542 284 552 c 1,7,-1
 250 556 l 2,8,9
 232 556 232 556 222 544 c 0,10,11
 212 534 212 534 212 504 c 2,12,-1
 212 454 l 1,13,-1
 298 454 l 2,14,15
 328 456 328 456 344 428 c 128,-1,16
 360 400 360 400 344 376 c 0,17,18
 328 348 328 348 298 348 c 2,19,-1
 212 348 l 1,20,-1
 212 52 l 2,21,22
 212 20 212 20 188 4 c 0,23,24
 160 -12 160 -12 132 4 c 0,25,26
 106 20 106 20 106 52 c 2,27,-1
 106 348 l 1,28,-1
 94 348 l 2,29,30
 62 348 62 348 46 376 c 0,31,32
 32 400 32 400 46 428 c 0,33,34
 62 456 62 456 94 454 c 2,35,-1
 106 454 l 1,36,-1
 106 504 l 2,37,38
 106 572 106 572 140 612 c 0,39,40
 168 648 168 648 218 658 c 0,41,42
 250 664 250 664 284 660 c 2,0,-1
EndSplineSet
KernsSLIFO: 75 -42 0 0 15 -218 0 0 14 -118 0 0 13 -520 0 0
EndChar
StartChar: g
Encoding: 103 103 72
Width: 472
GlyphClass: 2
Flags: W
Fore
424 52 m 2,0,1
 424 -92 424 -92 360 -150 c 0,2,3
 340 -164 340 -164 318 -174 c 0,4,5
 288 -184 288 -184 214 -184 c 2,6,-1
 206 -184 l 1,7,-1
 160 -174 l 1,8,9
 158 -174 158 -174 144 -172 c 1,10,11
 98 -158 98 -158 76 -120 c 0,12,13
 60 -96 60 -96 74 -68 c 128,-1,14
 88 -40 88 -40 120 -40 c 0,15,16
 150 -40 150 -40 166 -66 c 1,17,-1
 164 -60 l 1,18,-1
 188 -72 l 1,19,20
 202 -76 202 -76 218 -78 c 0,21,22
 280 -78 280 -78 294 -68 c 0,23,24
 314 -52 314 -52 318 20 c 1,25,26
 280 4 280 4 234 0 c 0,27,28
 184 0 184 0 136 32 c 2,29,-1
 120 44 l 2,30,31
 42 110 42 110 42 238 c 0,32,33
 42 264 42 264 46 288 c 0,34,35
 62 396 62 396 136 444 c 0,36,37
 184 476 184 476 246 476 c 128,-1,38
 308 476 308 476 354 440 c 0,39,40
 424 378 424 378 424 256 c 2,41,-1
 424 52 l 2,0,1
244 370 m 2,42,-1
 240 370 l 1,43,44
 238 368 238 368 234 368 c 0,45,46
 216 368 216 368 194 356 c 0,47,48
 148 324 148 324 148 238 c 2,49,-1
 148 232 l 2,50,51
 150 118 150 118 234 106 c 1,52,53
 258 108 258 108 280 120 c 1,54,-1
 290 122 l 1,55,56
 320 140 320 140 320 192 c 2,57,-1
 320 256 l 2,58,59
 320 340 320 340 278 360 c 1,60,61
 264 370 264 370 244 370 c 2,42,-1
EndSplineSet
KernsSLIFO: 75 62 0 0 15 -88 0 0 13 -392 0 0
EndChar
StartChar: h
Encoding: 104 104 73
Width: 478
GlyphClass: 2
Flags: W
Fore
52 56 m 2,0,-1
 52 608 l 2,1,2
 52 640 52 640 80 658 c 1,3,4
 92 662 92 662 104 662 c 0,5,6
 128 662 128 662 142 648 c 0,7,8
 158 632 158 632 158 608 c 2,9,-1
 158 456 l 1,10,11
 200 476 200 476 242 476 c 0,12,13
 340 476 340 476 392 406 c 0,14,15
 436 352 436 352 434 286 c 2,16,-1
 434 56 l 2,17,18
 436 24 436 24 408 8 c 0,19,20
 380 -6 380 -6 356 8 c 0,21,22
 328 24 328 24 328 56 c 2,23,-1
 328 286 l 2,24,25
 320 354 320 354 280 366 c 0,26,27
 266 372 266 372 242 372 c 0,28,29
 192 372 192 372 176 340 c 128,-1,30
 160 308 160 308 158 286 c 2,31,-1
 158 56 l 2,32,33
 158 16 158 16 120 4 c 0,34,35
 88 -4 88 -4 64 20 c 0,36,37
 52 34 52 34 52 56 c 2,0,-1
EndSplineSet
KernsSLIFO: 75 -50 0 0 15 -84 0 0 13 -388 0 0
EndChar
StartChar: i
Encoding: 105 105 74
Width: 204
GlyphClass: 2
Flags: W
Fore
100 668 m 0,0,1
 122 672 122 672 140 656 c 0,2,3
 158 638 158 638 158 614 c 2,4,-1
 158 606 l 2,5,6
 158 576 158 576 132 560 c 0,7,8
 104 544 104 544 78 560 c 128,-1,9
 52 576 52 576 52 606 c 2,10,-1
 52 614 l 2,11,12
 52 624 52 624 56 632 c 1,13,14
 66 664 66 664 100 668 c 0,0,1
104 476 m 0,15,16
 128 476 128 476 142 460 c 0,17,18
 158 444 158 444 158 422 c 2,19,-1
 158 54 l 2,20,21
 158 24 158 24 132 8 c 0,22,23
 104 -8 104 -8 78 8 c 128,-1,24
 52 24 52 24 52 54 c 2,25,-1
 52 422 l 2,26,27
 52 434 52 434 58 444 c 1,28,29
 70 476 70 476 104 476 c 0,15,16
EndSplineSet
KernsSLIFO: 75 -52 0 0 15 -88 0 0 13 -392 0 0
EndChar
StartChar: j
Encoding: 106 106 75
Width: 270
GlyphClass: 2
Flags: W
Fore
156 664 m 0,0,1
 180 664 180 664 196 650 c 0,2,3
 212 632 212 632 210 610 c 2,4,-1
 210 600 l 2,5,6
 212 572 212 572 184 556 c 0,7,8
 160 540 160 540 132 556 c 128,-1,9
 104 572 104 572 104 600 c 2,10,-1
 104 610 l 2,11,12
 104 622 104 622 110 632 c 0,13,14
 124 662 124 662 156 664 c 0,0,1
156 480 m 0,15,16
 180 480 180 480 196 464 c 128,-1,17
 212 448 212 448 210 426 c 2,18,-1
 210 -28 l 2,19,20
 210 -94 210 -94 178 -136 c 0,21,22
 132 -188 132 -188 44 -184 c 1,23,-1
 4 -176 l 2,24,25
 -24 -170 -24 -170 -32 -140 c 128,-1,26
 -40 -110 -40 -110 -20 -88 c 0,27,28
 4 -66 4 -66 36 -76 c 0,29,30
 80 -86 80 -86 96 -68 c 0,31,32
 104 -56 104 -56 104 -28 c 2,33,-1
 104 426 l 2,34,35
 104 440 104 440 110 448 c 1,36,37
 124 480 124 480 156 480 c 0,15,16
EndSplineSet
KernsSLIFO: 75 64 0 0 28 -40 0 0 15 -100 0 0 13 -404 0 0
EndChar
StartChar: k
Encoding: 107 107 76
Width: 436
GlyphClass: 2
Flags: W
Fore
90 670 m 0,0,1
 112 670 112 670 128 654 c 128,-1,2
 144 638 144 638 144 616 c 2,3,-1
 144 322 l 1,4,-1
 314 484 l 2,5,6
 340 508 340 508 374 494 c 0,7,8
 382 490 382 490 390 482 c 0,9,10
 414 456 414 456 400 424 c 0,11,12
 394 414 394 414 388 406 c 1,13,-1
 264 290 l 1,14,-1
 414 86 l 2,15,16
 436 56 436 56 416 26 c 0,17,18
 410 18 410 18 402 12 c 0,19,20
 374 -10 374 -10 342 10 c 0,21,22
 334 14 334 14 328 22 c 2,23,-1
 186 216 l 1,24,-1
 144 176 l 1,25,-1
 144 54 l 2,26,27
 144 24 144 24 118 8 c 0,28,29
 90 -8 90 -8 64 8 c 128,-1,30
 38 24 38 24 38 54 c 2,31,-1
 38 616 l 2,32,33
 38 650 38 650 68 664 c 0,34,35
 78 670 78 670 90 670 c 0,0,1
EndSplineSet
KernsSLIFO: 15 -74 0 0 14 -72 0 0 13 -378 0 0
EndChar
StartChar: l
Encoding: 108 108 77
Width: 202
GlyphClass: 2
Flags: W
Fore
156 600 m 2,0,-1
 156 52 l 2,1,2
 156 42 156 42 152 32 c 0,3,4
 138 2 138 2 104 2 c 0,5,6
 92 2 92 2 82 6 c 0,7,8
 52 20 52 20 52 52 c 2,9,-1
 52 600 l 2,10,11
 52 614 52 614 56 624 c 0,12,13
 72 654 72 654 104 654 c 0,14,15
 116 654 116 654 124 650 c 0,16,17
 156 636 156 636 156 600 c 2,0,-1
EndSplineSet
KernsSLIFO: 75 -52 0 0 15 -88 0 0 13 -392 0 0
EndChar
StartChar: m
Encoding: 109 109 78
Width: 628
GlyphClass: 2
Flags: W
Fore
203 478 m 0,0,1
 271 478 271 478 319 436 c 1,2,3
 367 478 367 478 433 478 c 0,4,5
 517 478 517 478 565 418 c 0,6,7
 603 372 603 372 601 314 c 2,8,-1
 601 56 l 2,9,10
 601 26 601 26 575 10 c 128,-1,11
 549 -6 549 -6 521 10 c 0,12,13
 495 26 495 26 495 56 c 2,14,-1
 495 314 l 2,15,16
 489 357 489 357 463 368 c 0,17,18
 453 372 453 372 433 372 c 0,19,20
 395 372 395 372 383 352 c 0,21,22
 373 334 373 334 371 314 c 2,23,-1
 371 203 l 2,24,25
 371 173 371 173 345 157 c 128,-1,26
 319 141 319 141 291 157 c 0,27,28
 265 171 265 171 265 203 c 2,29,-1
 265 314 l 2,30,31
 259 357 259 357 233 368 c 0,32,33
 223 372 223 372 203 372 c 0,34,35
 167 372 167 372 155 352 c 0,36,37
 143 331 143 331 141 314 c 2,38,-1
 141 56 l 2,39,40
 143 26 143 26 115 10 c 0,41,42
 89 -6 89 -6 61 10 c 0,43,44
 35 26 35 26 35 56 c 2,45,-1
 35 314 l 2,46,47
 43 438 43 438 147 470 c 0,48,49
 173 478 173 478 203 478 c 0,0,1
EndSplineSet
KernsSLIFO: 75 -52 0 0 15 -86 0 0 13 -390 0 0
EndChar
StartChar: n
Encoding: 110 110 79
Width: 466
GlyphClass: 2
Flags: W
Fore
48 280 m 2,0,1
 48 350 48 350 90 402 c 0,2,3
 140 466 140 466 236 466 c 0,4,5
 380 452 380 452 414 336 c 0,6,7
 420 310 420 310 422 280 c 2,8,-1
 422 52 l 2,9,10
 422 20 422 20 392 6 c 0,11,12
 380 0 380 0 370 0 c 0,13,14
 336 0 336 0 324 32 c 0,15,16
 320 42 320 42 320 52 c 2,17,-1
 320 280 l 2,18,19
 316 354 316 354 236 362 c 0,20,21
 168 362 168 362 154 298 c 0,22,23
 152 288 152 288 152 280 c 2,24,-1
 152 52 l 2,25,26
 152 20 152 20 120 6 c 1,27,28
 112 0 112 0 100 0 c 0,29,30
 66 0 66 0 52 32 c 0,31,32
 48 42 48 42 48 52 c 2,33,-1
 48 280 l 2,0,1
EndSplineSet
KernsSLIFO: 75 -50 0 0 15 -84 0 0 13 -388 0 0
EndChar
StartChar: o
Encoding: 111 111 80
Width: 482
GlyphClass: 2
Flags: W
Fore
242 474 m 0,0,1
 306 474 306 474 354 442 c 0,2,3
 444 374 444 374 444 238 c 0,4,5
 444 92 444 92 354 32 c 0,6,7
 304 0 304 0 242 0 c 0,8,9
 172 0 172 0 118 40 c 0,10,11
 42 104 42 104 44 238 c 0,12,13
 44 380 44 380 134 440 c 0,14,15
 182 474 182 474 242 474 c 0,0,1
148 230 m 2,16,17
 148 104 148 104 242 104 c 0,18,19
 340 104 340 104 340 238 c 0,20,21
 340 368 340 368 242 368 c 0,22,23
 216 368 216 368 192 352 c 0,24,25
 148 324 148 324 148 238 c 2,26,-1
 148 230 l 2,16,17
EndSplineSet
KernsSLIFO: 75 -46 0 0 15 -106 0 0 13 -388 0 0
EndChar
StartChar: p
Encoding: 112 112 81
Width: 468
GlyphClass: 2
Flags: W
Fore
244 474 m 1,0,-1
 244 472 l 1,1,2
 294 472 294 472 336 442 c 0,3,4
 428 380 428 380 428 238 c 0,5,6
 428 212 428 212 426 190 c 0,7,8
 410 82 410 82 336 32 c 0,9,10
 296 6 296 6 238 0 c 0,11,12
 196 0 196 0 152 20 c 1,13,-1
 152 -132 l 2,14,15
 152 -162 152 -162 128 -178 c 0,16,17
 100 -194 100 -194 72 -178 c 0,18,19
 48 -162 48 -162 48 -132 c 2,20,-1
 48 256 l 2,21,22
 48 292 48 292 56 324 c 0,23,24
 76 418 76 418 144 454 c 0,25,26
 188 478 188 478 238 474 c 2,27,-1
 244 474 l 1,0,-1
152 192 m 2,28,29
 152 168 152 168 158 152 c 0,30,31
 172 116 172 116 238 106 c 1,32,33
 258 106 258 106 278 120 c 0,34,35
 322 152 322 152 322 238 c 0,36,37
 322 336 322 336 260 364 c 1,38,-1
 238 368 l 2,39,40
 236 368 236 368 232 368 c 0,41,42
 212 370 212 370 194 360 c 0,43,44
 152 340 152 340 152 256 c 2,45,-1
 152 192 l 2,28,29
EndSplineSet
KernsSLIFO: 75 -46 0 0 15 -108 0 0 13 -388 0 0
EndChar
StartChar: q
Encoding: 113 113 82
Width: 492
GlyphClass: 2
Flags: W
Fore
226 474 m 1,0,-1
 232 474 l 2,1,2
 284 478 284 478 328 454 c 0,3,4
 396 418 396 418 416 324 c 0,5,6
 424 292 424 292 424 256 c 2,7,-1
 424 -132 l 2,8,9
 424 -162 424 -162 400 -178 c 0,10,11
 372 -194 372 -194 344 -178 c 0,12,13
 318 -162 318 -162 318 -132 c 2,14,-1
 318 20 l 1,15,16
 274 0 274 0 232 0 c 0,17,18
 176 6 176 6 136 32 c 0,19,20
 42 96 42 96 42 238 c 128,-1,21
 42 380 42 380 136 442 c 0,22,23
 180 472 180 472 226 472 c 1,24,-1
 226 474 l 1,0,-1
318 192 m 2,25,-1
 318 256 l 2,26,27
 320 340 320 340 278 360 c 0,28,29
 260 370 260 370 240 368 c 2,30,-1
 232 368 l 1,31,-1
 212 364 l 1,32,33
 202 360 202 360 192 354 c 0,34,35
 148 324 148 324 148 238 c 128,-1,36
 148 152 148 152 192 120 c 0,37,38
 216 106 216 106 232 106 c 1,39,40
 260 110 260 110 278 120 c 0,41,42
 306 132 306 132 314 152 c 0,43,44
 318 168 318 168 318 192 c 2,25,-1
EndSplineSet
KernsSLIFO: 75 66 0 0 28 -50 0 0 27 -40 0 0 15 -108 0 0 13 -412 0 0
EndChar
StartChar: r
Encoding: 114 114 83
Width: 450
GlyphClass: 2
Flags: W
Fore
240 476 m 0,0,1
 350 476 350 476 406 378 c 0,2,3
 422 348 422 348 406 320 c 0,4,5
 388 294 388 294 356 296 c 0,6,7
 324 300 324 300 312 330 c 0,8,9
 298 358 298 358 276 364 c 0,10,11
 260 368 260 368 240 368 c 0,12,13
 188 368 188 368 170 340 c 0,14,15
 168 336 168 336 164 330 c 1,16,17
 154 308 154 308 152 284 c 2,18,-1
 152 54 l 2,19,20
 152 24 152 24 128 8 c 0,21,22
 100 -8 100 -8 74 8 c 128,-1,23
 48 24 48 24 48 54 c 2,24,-1
 48 284 l 2,25,26
 58 422 58 422 170 462 c 0,27,28
 202 476 202 476 240 476 c 0,0,1
EndSplineSet
KernsSLIFO: 75 -42 0 0 15 -338 0 0 13 -640 0 0
EndChar
StartChar: s
Encoding: 115 115 84
Width: 414
GlyphClass: 2
Flags: W
Fore
198 478 m 2,0,1
 256 478 256 478 298 456 c 0,2,3
 366 418 366 418 356 370 c 0,4,5
 352 340 352 340 318 330 c 0,6,7
 288 322 288 322 268 344 c 1,8,9
 240 386 240 386 178 378 c 0,10,11
 174 378 174 378 172 376 c 1,12,13
 138 372 138 372 126 342 c 0,14,15
 120 326 120 326 130 308 c 1,16,17
 154 292 154 292 208 294 c 0,18,19
 240 294 240 294 256 290 c 1,20,21
 320 284 320 284 360 226 c 0,22,23
 386 190 386 190 384 148 c 0,24,25
 386 84 386 84 332 42 c 0,26,27
 310 26 310 26 286 18 c 0,28,29
 180 -16 180 -16 98 18 c 0,30,31
 32 50 32 50 20 94 c 0,32,33
 12 128 12 128 46 148 c 0,34,35
 78 168 78 168 104 146 c 1,36,37
 108 144 108 144 110 142 c 0,38,39
 144 98 144 98 230 112 c 0,40,41
 264 114 264 114 276 138 c 0,42,43
 284 152 284 152 276 168 c 1,44,45
 258 188 258 188 212 188 c 0,46,47
 112 184 112 184 66 228 c 0,48,49
 16 270 16 270 20 338 c 0,50,51
 20 382 20 382 46 416 c 0,52,53
 92 480 92 480 194 478 c 2,54,-1
 198 478 l 2,0,1
EndSplineSet
KernsSLIFO: 75 -48 0 0 15 -88 0 0 13 -386 0 0
EndChar
StartChar: t
Encoding: 116 116 85
Width: 346
GlyphClass: 2
Flags: W
Fore
148 664 m 0,0,1
 172 664 172 664 188 648 c 128,-1,2
 204 632 204 632 202 610 c 2,3,-1
 202 472 l 1,4,-1
 268 472 l 2,5,6
 300 472 300 472 316 444 c 0,7,8
 332 420 332 420 316 392 c 128,-1,9
 300 364 300 364 268 366 c 2,10,-1
 202 366 l 1,11,-1
 202 158 l 2,12,13
 202 128 202 128 212 118 c 1,14,15
 218 110 218 110 232 108 c 1,16,17
 248 102 248 102 272 110 c 0,18,19
 304 120 304 120 328 96 c 0,20,21
 348 76 348 76 340 44 c 0,22,23
 332 14 332 14 302 6 c 2,24,-1
 264 0 l 2,25,26
 176 -6 176 -6 132 48 c 0,27,28
 96 90 96 90 96 158 c 2,29,-1
 96 366 l 1,30,-1
 64 366 l 2,31,32
 32 364 32 364 18 392 c 0,33,34
 2 420 2 420 18 444 c 0,35,36
 32 472 32 472 64 472 c 2,37,-1
 96 472 l 1,38,-1
 96 610 l 2,39,40
 96 642 96 642 124 660 c 1,41,42
 136 664 136 664 148 664 c 0,0,1
EndSplineSet
KernsSLIFO: 75 -40 0 0 15 -76 0 0 14 -116 0 0 13 -380 0 0
EndChar
StartChar: u
Encoding: 117 117 86
Width: 476
GlyphClass: 2
Flags: W
Fore
100 476 m 0,0,1
 122 476 122 476 140 460 c 0,2,3
 156 444 156 444 156 420 c 2,4,-1
 156 192 l 2,5,6
 156 164 156 164 166 146 c 0,7,8
 180 120 180 120 200 112 c 0,9,10
 218 106 218 106 240 106 c 0,11,12
 290 106 290 106 308 136 c 2,13,-1
 314 146 l 2,14,15
 324 168 324 168 324 192 c 2,16,-1
 324 420 l 2,17,18
 324 452 324 452 352 468 c 128,-1,19
 380 484 380 484 404 468 c 0,20,21
 432 452 432 452 432 420 c 2,22,-1
 432 192 l 2,23,24
 420 54 420 54 308 12 c 0,25,26
 276 0 276 0 240 0 c 0,27,28
 144 0 144 0 90 72 c 0,29,30
 80 84 80 84 72 98 c 0,31,32
 48 144 48 144 48 192 c 2,33,-1
 48 420 l 2,34,35
 48 456 48 456 78 470 c 0,36,37
 88 476 88 476 100 476 c 0,0,1
EndSplineSet
KernsSLIFO: 75 -50 0 0 15 -108 0 0 13 -392 0 0
EndChar
StartChar: v
Encoding: 118 118 87
Width: 456
GlyphClass: 2
Flags: W
Fore
70 484 m 1,0,1
 104 486 104 486 120 456 c 2,2,-1
 124 448 l 1,3,4
 168 258 168 258 204 170 c 2,5,-1
 220 138 l 2,6,7
 224 132 224 132 228 144 c 0,8,9
 272 238 272 238 322 428 c 1,10,11
 326 468 326 468 358 480 c 2,12,-1
 366 484 l 1,13,14
 400 492 400 492 424 462 c 0,15,16
 440 444 440 444 436 422 c 0,17,18
 414 324 414 324 376 208 c 0,19,20
 336 98 336 98 310 58 c 0,21,22
 302 46 302 46 294 36 c 0,23,24
 266 -2 266 -2 220 0 c 0,25,26
 210 0 210 0 200 4 c 0,27,28
 150 20 150 20 112 100 c 1,29,30
 108 106 108 106 106 114 c 2,31,32
 58 226 58 226 16 416 c 0,33,34
 8 450 8 450 38 474 c 0,35,36
 52 486 52 486 70 484 c 1,0,1
EndSplineSet
KernsSLIFO: 15 -192 0 0 13 -452 0 0
EndChar
StartChar: w
Encoding: 119 119 88
Width: 626
GlyphClass: 2
Flags: W
Fore
86 474 m 1,0,1
 116 476 116 476 132 448 c 0,2,3
 138 438 138 438 138 426 c 2,4,-1
 138 220 l 1,5,-1
 140 156 l 2,6,7
 142 142 142 142 148 130 c 0,8,9
 160 100 160 100 220 106 c 0,10,11
 252 108 252 108 260 154 c 1,12,13
 262 156 262 156 262 158 c 2,14,-1
 264 248 l 1,15,-1
 264 252 l 1,16,17
 270 280 270 280 302 290 c 0,18,19
 328 296 328 296 348 280 c 0,20,21
 370 264 370 264 368 220 c 2,22,-1
 370 156 l 2,23,24
 372 142 372 142 378 130 c 0,25,26
 388 104 388 104 450 106 c 0,27,28
 482 108 482 108 490 154 c 1,29,30
 492 158 492 158 492 160 c 2,31,-1
 492 406 l 2,32,33
 488 452 488 452 518 468 c 0,34,35
 546 486 546 486 576 464 c 0,36,37
 596 450 596 450 598 428 c 2,38,-1
 598 192 l 2,39,40
 602 106 602 106 560 56 c 0,41,42
 512 -2 512 -2 430 -2 c 0,43,44
 362 0 362 0 316 42 c 1,45,46
 258 -10 258 -10 178 0 c 0,47,48
 144 4 144 4 116 20 c 0,49,50
 54 52 54 52 38 124 c 0,51,52
 34 138 34 138 34 152 c 2,53,-1
 34 412 l 1,54,55
 28 446 28 446 56 466 c 0,56,57
 70 476 70 476 86 474 c 1,0,1
EndSplineSet
KernsSLIFO: 75 -52 0 0 15 -100 0 0 13 -392 0 0
EndChar
StartChar: x
Encoding: 120 120 89
Width: 496
GlyphClass: 2
Flags: W
Fore
74 476 m 0,0,1
 100 476 100 476 116 456 c 2,2,-1
 224 322 l 1,3,-1
 332 456 l 2,4,5
 352 480 352 480 382 476 c 0,6,7
 412 470 412 470 424 442 c 0,8,9
 434 414 434 414 414 390 c 2,10,-1
 292 238 l 1,11,-1
 414 88 l 2,12,13
 434 64 434 64 424 34 c 0,14,15
 412 6 412 6 382 2 c 0,16,17
 352 -4 352 -4 332 20 c 2,18,-1
 224 154 l 1,19,-1
 116 20 l 2,20,21
 96 -4 96 -4 66 2 c 0,22,23
 36 6 36 6 24 34 c 0,24,25
 14 64 14 64 34 88 c 2,26,-1
 156 238 l 1,27,-1
 34 390 l 2,28,29
 12 416 12 416 26 446 c 128,-1,30
 40 476 40 476 74 476 c 0,0,1
EndSplineSet
KernsSLIFO: 75 -44 0 0 15 -80 0 0 14 -88 0 0 13 -384 0 0
EndChar
StartChar: y
Encoding: 121 121 90
Width: 464
GlyphClass: 2
Flags: W
Fore
432 422 m 2,0,-1
 432 30 l 2,1,2
 432 -90 432 -90 380 -140 c 0,3,4
 338 -184 338 -184 242 -184 c 0,5,6
 150 -196 150 -196 74 -150 c 0,7,8
 48 -134 48 -134 48 -104 c 0,9,10
 48 -72 48 -72 76 -58 c 0,11,12
 102 -42 102 -42 128 -60 c 0,13,14
 160 -78 160 -78 236 -78 c 2,15,-1
 240 -78 l 2,16,17
 292 -78 292 -78 306 -64 c 0,18,19
 324 -48 324 -48 324 20 c 1,20,21
 268 -8 268 -8 204 4 c 0,22,23
 76 38 76 38 52 188 c 0,24,25
 48 212 48 212 48 238 c 2,26,-1
 48 422 l 2,27,28
 48 458 48 458 80 472 c 0,29,30
 88 476 88 476 100 476 c 0,31,32
 124 476 124 476 140 460 c 128,-1,33
 156 444 156 444 156 422 c 2,34,-1
 156 238 l 2,35,36
 156 152 156 152 200 120 c 0,37,38
 220 106 220 106 240 106 c 0,39,40
 266 108 266 108 284 120 c 2,41,42
 312 132 312 132 320 152 c 0,43,44
 324 168 324 168 324 192 c 2,45,-1
 324 422 l 2,46,47
 324 452 324 452 352 470 c 0,48,49
 380 484 380 484 404 470 c 0,50,51
 432 452 432 452 432 422 c 2,0,-1
EndSplineSet
KernsSLIFO: 75 64 0 0 15 -92 0 0 13 -396 0 0
EndChar
StartChar: z
Encoding: 122 122 91
Width: 434
GlyphClass: 2
Flags: W
Fore
74 466 m 2,0,-1
 350 466 l 2,1,2
 382 466 382 466 396 436 c 0,3,4
 412 408 412 408 392 380 c 2,5,-1
 182 106 l 1,6,-1
 350 106 l 2,7,8
 380 106 380 106 396 80 c 128,-1,9
 412 54 412 54 396 26 c 0,10,11
 380 0 380 0 350 0 c 2,12,-1
 74 0 l 2,13,14
 42 0 42 0 26 30 c 0,15,16
 12 60 12 60 32 86 c 2,17,-1
 242 360 l 1,18,-1
 74 360 l 2,19,20
 44 360 44 360 28 386 c 0,21,22
 12 414 12 414 28 440 c 128,-1,23
 44 466 44 466 74 466 c 2,0,-1
EndSplineSet
KernsSLIFO: 75 -42 0 0 15 -98 0 0 14 -76 0 0 13 -400 0 0
EndChar
StartChar: braceleft
Encoding: 123 123 92
Width: 462
GlyphClass: 2
Flags: W
Fore
230 700 m 2,0,-1
 326 700 l 2,1,2
 360 700 360 700 376 670 c 128,-1,3
 392 640 392 640 376 614 c 0,4,5
 360 584 360 584 326 586 c 2,6,-1
 248 586 l 1,7,-1
 248 496 l 2,8,9
 248 416 248 416 224 368 c 1,10,11
 220 364 220 364 208 350 c 1,12,13
 222 334 222 334 224 332 c 1,14,15
 248 286 248 286 248 204 c 2,16,-1
 248 114 l 1,17,-1
 326 114 l 2,18,19
 360 114 360 114 376 86 c 128,-1,20
 392 58 392 58 376 30 c 128,-1,21
 360 2 360 2 326 2 c 2,22,-1
 230 2 l 2,23,24
 184 2 184 2 158 40 c 0,25,26
 140 60 140 60 138 98 c 0,27,28
 136 114 136 114 136 198 c 1,29,30
 138 200 138 200 138 204 c 0,31,32
 138 286 138 286 110 292 c 0,33,34
 100 294 100 294 82 294 c 0,35,36
 48 294 48 294 40 332 c 0,37,38
 28 370 28 370 52 394 c 0,39,40
 64 406 64 406 82 406 c 0,41,42
 116 406 116 406 122 418 c 1,43,44
 138 432 138 432 138 496 c 2,45,-1
 136 588 l 2,46,47
 136 596 136 596 138 602 c 1,48,49
 148 688 148 688 220 698 c 1,50,51
 224 700 224 700 230 700 c 2,0,-1
EndSplineSet
EndChar
StartChar: bar
Encoding: 124 124 93
Width: 378
GlyphClass: 2
Flags: W
Fore
240 716 m 2,0,-1
 240 -108 l 2,1,2
 240 -120 240 -120 238 -128 c 1,3,4
 222 -160 222 -160 190 -160 c 0,5,6
 178 -160 178 -160 168 -154 c 0,7,8
 138 -140 138 -140 138 -108 c 2,9,-1
 138 716 l 2,10,11
 138 726 138 726 140 738 c 1,12,13
 156 766 156 766 190 766 c 0,14,15
 200 766 200 766 212 760 c 0,16,17
 240 748 240 748 240 716 c 2,0,-1
EndSplineSet
EndChar
StartChar: braceright
Encoding: 125 125 94
Width: 494
GlyphClass: 2
Flags: W
Fore
196 700 m 2,0,1
 200 700 200 700 204 698 c 1,2,3
 280 688 280 688 288 602 c 1,4,5
 290 596 290 596 290 588 c 2,6,-1
 290 496 l 2,7,8
 290 444 290 444 300 422 c 0,9,10
 302 418 302 418 304 418 c 1,11,12
 310 406 310 406 342 406 c 0,13,14
 360 406 360 406 374 394 c 0,15,16
 396 370 396 370 386 332 c 0,17,18
 378 294 378 294 342 294 c 0,19,20
 324 294 324 294 316 292 c 0,21,22
 290 286 290 286 290 204 c 0,23,24
 292 120 292 120 288 98 c 0,25,26
 284 60 284 60 268 40 c 0,27,28
 240 2 240 2 196 2 c 2,29,-1
 100 2 l 2,30,31
 66 2 66 2 52 30 c 0,32,33
 34 58 34 58 52 86 c 0,34,35
 66 114 66 114 100 114 c 2,36,-1
 178 114 l 1,37,-1
 178 204 l 2,38,39
 178 286 178 286 202 332 c 1,40,41
 204 334 204 334 218 350 c 1,42,43
 204 364 204 364 202 368 c 0,44,45
 178 416 178 416 178 496 c 2,46,-1
 178 586 l 1,47,-1
 100 586 l 2,48,49
 66 584 66 584 52 614 c 1,50,51
 34 640 34 640 52 670 c 0,52,53
 66 700 66 700 100 700 c 2,54,-1
 196 700 l 2,0,1
EndSplineSet
EndChar
StartChar: brokenbar
Encoding: 166 166 95
Width: 162
GlyphClass: 2
Flags: W
Fore
134 234 m 2,0,-1
 134 54 l 2,1,2
 134 42 134 42 130 34 c 0,3,4
 118 2 118 2 82 2 c 0,5,6
 70 2 70 2 60 6 c 0,7,8
 30 20 30 20 30 54 c 2,9,-1
 30 234 l 2,10,11
 30 244 30 244 34 256 c 1,12,13
 48 284 48 284 82 284 c 0,14,15
 94 284 94 284 104 280 c 0,16,17
 134 264 134 264 134 234 c 2,0,-1
134 600 m 2,18,-1
 134 422 l 2,19,20
 134 412 134 412 130 402 c 0,21,22
 118 372 118 372 82 372 c 0,23,24
 70 372 70 372 60 376 c 0,25,26
 30 388 30 388 30 422 c 2,27,-1
 30 600 l 2,28,29
 30 614 30 614 34 624 c 0,30,31
 48 654 48 654 82 654 c 0,32,33
 94 654 94 654 104 650 c 0,34,35
 134 634 134 634 134 600 c 2,18,-1
EndSplineSet
EndChar
StartChar: questiondown
Encoding: 191 191 96
Width: 556
GlyphClass: 2
Flags: W
Fore
168 708 m 0,0,1
 190 712 190 712 208 696 c 0,2,3
 224 680 224 680 224 656 c 2,4,-1
 224 648 l 2,5,6
 224 616 224 616 200 600 c 0,7,8
 172 584 172 584 146 600 c 128,-1,9
 120 616 120 616 120 648 c 2,10,-1
 120 656 l 2,11,12
 120 664 120 664 122 674 c 1,13,14
 134 704 134 704 168 708 c 0,0,1
190 114 m 2,15,-1
 302 112 l 2,16,17
 368 110 368 110 368 178 c 2,18,-1
 368 194 l 1,19,20
 364 212 364 212 340 226 c 0,21,22
 316 244 316 244 280 244 c 0,23,24
 224 240 224 240 180 276 c 0,25,26
 126 324 126 324 126 398 c 2,27,-1
 126 444 l 2,28,29
 124 478 124 478 154 494 c 0,30,31
 180 512 180 512 210 494 c 0,32,33
 240 478 240 478 238 444 c 2,34,-1
 238 398 l 2,35,36
 238 380 238 380 240 374 c 128,-1,37
 242 368 242 368 256 360 c 1,38,39
 266 360 266 360 280 356 c 1,40,41
 344 356 344 356 400 322 c 0,42,43
 408 318 408 318 418 310 c 0,44,45
 480 260 480 260 480 178 c 0,46,47
 480 168 480 168 480 160 c 0,48,49
 470 76 470 76 416 36 c 0,50,51
 368 0 368 0 302 0 c 2,52,-1
 190 0 l 2,53,54
 132 2 132 2 92 28 c 1,55,-1
 84 36 l 2,56,57
 38 82 38 82 38 130 c 0,58,59
 38 162 38 162 64 180 c 0,60,61
 94 196 94 196 120 180 c 0,62,63
 150 162 150 162 150 130 c 0,64,65
 150 114 150 114 190 114 c 2,15,-1
EndSplineSet
EndChar
StartChar: acute
Encoding: 180 180 97
Width: 450
Flags: W
TeX: 0 0 0 0
Fore
325.139 626.055 m 6,0,-1
 160 532.09 l 6,1,2
 130.451 515.274 130.451 515.274 102.695 531.698 c 132,-1,3
 74.9434 548.121 74.9434 548.121 75 580.37 c 4,4,5
 76.7988 613.609 76.7988 613.609 104.611 629.434 c 6,6,-1
 269.748 723.399 l 6,7,8
 297.561 739.224 297.561 739.224 325.316 722.802 c 132,-1,9
 353.068 706.378 353.068 706.378 353.01 674.129 c 132,-1,10
 352.951 641.881 352.951 641.881 325.139 626.055 c 6,0,-1
EndSplineSet
EndChar
StartChar: asciitilde
Encoding: 126 126 98
Width: 470
Flags: W
TeX: 0 0 0 0
Fore
183.842 701.531 m 0,0,1
 235.188 701.531 235.188 701.531 256.174 687.887 c 128,-1,2
 277.162 674.241 277.162 674.241 277.162 645.421 c 0,3,4
 277.162 643.933 277.162 643.933 277.123 641.417 c 0,5,6
 277.012 634.198 277.012 634.198 278.445 632.604 c 128,-1,7
 279.879 631.01 279.879 631.01 287.559 631.01 c 0,8,9
 296.588 631.01 296.588 631.01 298.053 632.839 c 128,-1,10
 299.518 634.668 299.518 634.668 299.518 643.456 c 0,11,12
 299.979 663.465 299.979 663.465 313.787 674.668 c 128,-1,13
 327.596 685.87 327.596 685.87 349.207 686.987 c 0,14,15
 371.229 686.762 371.229 686.762 385.779 671.854 c 128,-1,16
 400.328 656.947 400.328 656.947 401.207 634.987 c 0,17,18
 401.207 527.01 401.207 527.01 293.559 527.01 c 0,19,20
 253.414 527.01 253.414 527.01 227.982 543.534 c 128,-1,21
 202.549 560.059 202.549 560.059 202.549 586.969 c 0,22,23
 202.549 595.094 202.549 595.094 201.172 596.312 c 128,-1,24
 199.795 597.531 199.795 597.531 189.842 597.531 c 0,25,26
 180.773 597.531 180.773 597.531 179.268 596.525 c 128,-1,27
 177.762 595.52 177.762 595.52 177.854 589.567 c 0,28,29
 177.883 587.686 177.883 587.686 177.883 586.594 c 0,30,31
 177.408 565.965 177.408 565.965 162.027 550.816 c 128,-1,32
 146.646 535.667 146.646 535.667 125.883 534.594 c 0,33,34
 103.863 534.819 103.863 534.819 89.3125 549.727 c 128,-1,35
 74.7617 564.634 74.7617 564.634 73.8828 586.594 c 0,36,37
 73.8848 644.936 73.8848 644.936 100 673.233 c 128,-1,38
 126.115 701.531 126.115 701.531 183.842 701.531 c 0,0,1
EndSplineSet
EndChar
StartChar: cedilla
Encoding: 184 184 99
Width: 310
Flags: W
TeX: 0 0 0 0
Fore
250.527 -18.6162 m 0,0,1
 248.926 -77.9131 248.926 -77.9131 213.818 -114.071 c 128,-1,2
 178.711 -150.229 178.711 -150.229 123.576 -148.738 c 0,3,4
 102.289 -147.853 102.289 -147.853 87.9844 -132.347 c 128,-1,5
 73.6816 -116.841 73.6816 -116.841 72.998 -95.3535 c 0,6,7
 73.6836 -73.625 73.6836 -73.625 89.043 -60.3428 c 128,-1,8
 104.402 -47.0605 104.402 -47.0605 126.33 -46.7754 c 0,9,10
 135.025 -47.0107 135.025 -47.0107 140.572 -39.6963 c 128,-1,11
 146.119 -32.3828 146.119 -32.3828 146.404 -21.8057 c 0,12,13
 146.758 -8.6416 146.758 -8.6416 141.496 -1.01758 c 128,-1,14
 136.232 6.60742 136.232 6.60742 127.779 6.83594 c 0,15,16
 107.17 7.86914 107.17 7.86914 92.4414 23.6523 c 128,-1,17
 77.7148 39.4365 77.7148 39.4365 77.2012 60.2207 c 0,18,19
 78.0215 82.2285 78.0215 82.2285 93.3164 96.3701 c 128,-1,20
 108.611 110.513 108.611 110.513 130.588 110.798 c 0,21,22
 187.889 109.249 187.889 109.249 220 74.6387 c 128,-1,23
 252.111 40.0283 252.111 40.0283 250.527 -18.6162 c 0,0,1
EndSplineSet
EndChar
StartChar: dieresis
Encoding: 168 168 100
Width: 388
Flags: W
TeX: 0 0 0 0
Fore
100 667.756 m 4,0,1
 122.002 671.755 122.002 671.755 140 655.756 c 4,2,3
 158 637.756 158 637.756 158 613.756 c 6,4,-1
 158 605.756 l 6,5,6
 158 575.756 158 575.756 132 559.756 c 4,7,8
 104 543.756 104 543.756 78 559.756 c 132,-1,9
 52.002 575.755 52.002 575.755 52 605.756 c 6,10,-1
 52 613.756 l 6,11,12
 52 623.755 52 623.755 56 631.756 c 5,13,14
 66.002 663.756 66.002 663.756 100 667.756 c 4,0,1
280 663.756 m 0,15,16
 307.877 663.756 307.877 663.756 320 649.756 c 0,17,18
 334 633.588 334 633.588 334 609.756 c 2,19,-1
 334 599.756 l 2,20,21
 334 573.089 334 573.089 308 555.756 c 0,22,23
 284 539.756 284 539.756 256 555.756 c 128,-1,24
 228 571.755 228 571.755 228 599.756 c 2,25,-1
 228 609.756 l 2,26,27
 228 618.898 228 618.898 234 631.756 c 0,28,29
 248.934 663.756 248.934 663.756 280 663.756 c 0,15,16
EndSplineSet
EndChar
StartChar: circumflex
Encoding: 710 710 101
Width: 468
Flags: W
TeX: 0 0 0 0
Fore
138.805 647.5 m 2,0,1
 185.381 676.9 185.381 676.9 210.312 684.801 c 128,-1,2
 235.244 692.701 235.244 692.701 260 685.248 c 128,-1,3
 284.756 677.794 284.756 677.794 326.461 648.562 c 2,4,-1
 366.211 619.688 l 2,5,6
 393.701 599.708 393.701 599.708 390.18 567.625 c 128,-1,7
 386.662 535.58 386.662 535.58 357.273 522.344 c 0,8,9
 326.23 510.269 326.23 510.269 300.367 529.062 c 2,10,-1
 233.148 577.906 l 1,11,-1
 163.398 526.469 l 2,12,13
 136.025 506.277 136.025 506.277 106.523 519.312 c 128,-1,14
 77.0234 532.347 77.0234 532.347 73.2734 564.375 c 0,15,16
 71.1367 597.594 71.1367 597.594 96.8984 616.594 c 2,17,-1
 138.805 647.5 l 2,0,1
EndSplineSet
EndChar
StartChar: caron
Encoding: 711 711 102
Width: 468
Flags: W
TeX: 0 0 0 0
Fore
320.195 551.5 m 6,0,1
 273.619 522.1 273.619 522.1 248.688 514.199 c 132,-1,2
 223.756 506.299 223.756 506.299 199 513.752 c 132,-1,3
 174.244 521.206 174.244 521.206 132.539 550.438 c 6,4,-1
 92.7891 579.312 l 6,5,6
 65.2988 599.292 65.2988 599.292 68.8203 631.375 c 132,-1,7
 72.3379 663.42 72.3379 663.42 101.727 676.656 c 4,8,9
 132.77 688.731 132.77 688.731 158.633 669.938 c 6,10,-1
 225.852 621.094 l 5,11,-1
 295.602 672.531 l 6,12,13
 322.975 692.723 322.975 692.723 352.477 679.688 c 132,-1,14
 381.977 666.653 381.977 666.653 385.727 634.625 c 4,15,16
 387.863 601.406 387.863 601.406 362.102 582.406 c 6,17,-1
 320.195 551.5 l 6,0,1
EndSplineSet
EndChar
StartChar: ring
Encoding: 730 730 103
Width: 409
Flags: W
TeX: 0 0 0 0
Fore
193.59 766.086 m 0,0,1
 252.91 766.086 252.91 766.086 290 731.976 c 128,-1,2
 327.09 697.866 327.09 697.866 327.09 642.711 c 0,3,4
 326.992 636.152 326.992 636.152 325.277 629.836 c 1,5,6
 326.836 623.747 326.836 623.747 327.09 617.398 c 0,7,8
 327.088 560.077 327.088 560.077 293.359 527.05 c 128,-1,9
 259.633 494.023 259.633 494.023 200.965 494.023 c 0,10,11
 141.645 494.023 141.645 494.023 104.555 528.134 c 128,-1,12
 67.4648 562.243 67.4648 562.243 67.4648 617.398 c 0,13,14
 67.5605 624.052 67.5605 624.052 69.2773 630.336 c 1,15,16
 67.7129 636.464 67.7129 636.464 67.4648 642.711 c 0,17,18
 67.4629 700.032 67.4629 700.032 101.191 733.06 c 128,-1,19
 134.92 766.086 134.92 766.086 193.59 766.086 c 0,0,1
197.934 662.086 m 2,20,21
 185.508 661.714 185.508 661.714 178.486 656.298 c 128,-1,22
 171.465 650.882 171.465 650.882 171.465 642.711 c 128,-1,23
 171.275 634.554 171.275 634.554 168.4 626.711 c 1,24,25
 169.279 622.047 169.279 622.047 169.465 617.398 c 0,26,27
 169.463 608.702 169.463 608.702 176.922 603.362 c 128,-1,28
 184.381 598.023 184.381 598.023 194.965 598.023 c 0,29,30
 208.135 598.023 208.135 598.023 215.613 603.483 c 128,-1,31
 223.09 608.943 223.09 608.943 223.09 617.398 c 0,32,33
 223.279 625.552 223.279 625.552 226.15 633.398 c 1,34,35
 225.275 638.075 225.275 638.075 225.09 642.711 c 0,36,37
 225.088 651.407 225.088 651.407 217.629 656.746 c 128,-1,38
 210.172 662.086 210.172 662.086 199.59 662.086 c 2,39,-1
 197.934 662.086 l 2,20,21
EndSplineSet
EndChar
StartChar: breve
Encoding: 728 728 104
Width: 356
Flags: W
TeX: 0 0 0 0
Fore
178.09 529.637 m 0,0,1
 118.771 529.637 118.771 529.637 81.6797 563.753 c 128,-1,2
 44.5879 597.87 44.5879 597.87 44.5879 653.027 c 0,3,4
 44.8984 674.33 44.8984 674.33 60.0137 689.048 c 128,-1,5
 75.127 703.766 75.127 703.766 96.5879 705.027 c 0,6,7
 118.328 704.929 118.328 704.929 132.02 689.935 c 128,-1,8
 145.711 674.94 145.711 674.94 146.588 653.027 c 0,9,10
 146.588 644.33 146.588 644.33 154.049 638.983 c 128,-1,11
 161.51 633.637 161.51 633.637 172.09 633.637 c 0,12,13
 185.258 633.637 185.258 633.637 192.738 639.104 c 128,-1,14
 200.219 644.571 200.219 644.571 200.219 653.027 c 0,15,16
 200.695 673.657 200.695 673.657 216.076 688.806 c 128,-1,17
 231.455 703.954 231.455 703.954 252.219 705.027 c 0,18,19
 274.238 704.802 274.238 704.802 288.789 689.895 c 128,-1,20
 303.34 674.986 303.34 674.986 304.219 653.027 c 0,21,22
 304.219 595.705 304.219 595.705 270.486 562.671 c 128,-1,23
 236.756 529.637 236.756 529.637 178.09 529.637 c 0,0,1
EndSplineSet
EndChar
StartChar: tilde
Encoding: 732 732 105
Width: 470
Flags: W
TeX: 0 0 0 0
Fore
183.842 701.531 m 0,0,1
 235.188 701.531 235.188 701.531 256.174 687.887 c 128,-1,2
 277.162 674.241 277.162 674.241 277.162 645.421 c 0,3,4
 277.162 643.933 277.162 643.933 277.123 641.417 c 0,5,6
 277.012 634.198 277.012 634.198 278.445 632.604 c 128,-1,7
 279.879 631.01 279.879 631.01 287.559 631.01 c 0,8,9
 296.588 631.01 296.588 631.01 298.053 632.839 c 128,-1,10
 299.518 634.668 299.518 634.668 299.518 643.456 c 0,11,12
 299.979 663.465 299.979 663.465 313.787 674.668 c 128,-1,13
 327.596 685.87 327.596 685.87 349.207 686.987 c 0,14,15
 371.229 686.762 371.229 686.762 385.779 671.854 c 128,-1,16
 400.328 656.947 400.328 656.947 401.207 634.987 c 0,17,18
 401.207 527.01 401.207 527.01 293.559 527.01 c 0,19,20
 253.414 527.01 253.414 527.01 227.982 543.534 c 128,-1,21
 202.549 560.059 202.549 560.059 202.549 586.969 c 0,22,23
 202.549 595.094 202.549 595.094 201.172 596.312 c 128,-1,24
 199.795 597.531 199.795 597.531 189.842 597.531 c 0,25,26
 180.773 597.531 180.773 597.531 179.268 596.525 c 128,-1,27
 177.762 595.52 177.762 595.52 177.854 589.567 c 0,28,29
 177.883 587.686 177.883 587.686 177.883 586.594 c 0,30,31
 177.408 565.965 177.408 565.965 162.027 550.816 c 128,-1,32
 146.646 535.667 146.646 535.667 125.883 534.594 c 0,33,34
 103.863 534.819 103.863 534.819 89.3125 549.727 c 128,-1,35
 74.7617 564.634 74.7617 564.634 73.8828 586.594 c 0,36,37
 73.8848 644.936 73.8848 644.936 100 673.233 c 128,-1,38
 126.115 701.531 126.115 701.531 183.842 701.531 c 0,0,1
EndSplineSet
EndChar
StartChar: ogonek
Encoding: 731 731 106
Width: 297
Flags: W
TeX: 0 0 0 0
Fore
61.4727 -19.3838 m 4,0,1
 63.0742 39.9131 63.0742 39.9131 98.1816 76.0713 c 132,-1,2
 133.289 112.229 133.289 112.229 188.424 110.738 c 4,3,4
 209.711 109.853 209.711 109.853 224.016 94.3467 c 132,-1,5
 238.318 78.8408 238.318 78.8408 239.002 57.3535 c 4,6,7
 238.316 35.625 238.316 35.625 222.957 22.3428 c 132,-1,8
 207.598 9.06055 207.598 9.06055 185.67 8.77539 c 4,9,10
 176.975 9.01074 176.975 9.01074 171.428 1.69629 c 132,-1,11
 165.881 -5.61719 165.881 -5.61719 165.596 -16.1943 c 4,12,13
 165.242 -29.3584 165.242 -29.3584 170.504 -36.9824 c 132,-1,14
 175.768 -44.6074 175.768 -44.6074 184.221 -44.8359 c 4,15,16
 204.83 -45.8691 204.83 -45.8691 219.559 -61.6523 c 132,-1,17
 234.285 -77.4365 234.285 -77.4365 234.799 -98.2207 c 4,18,19
 233.979 -120.229 233.979 -120.229 218.684 -134.37 c 132,-1,20
 203.389 -148.513 203.389 -148.513 181.412 -148.798 c 4,21,22
 124.111 -147.249 124.111 -147.249 92 -112.639 c 132,-1,23
 59.8887 -78.0283 59.8887 -78.0283 61.4727 -19.3838 c 4,0,1
EndSplineSet
EndChar
StartChar: hungarumlaut
Encoding: 733 733 107
Width: 641
Flags: W
TeX: 0 0 0 0
Fore
572.129 626.055 m 2,0,-1
 406.99 532.09 l 2,1,2
 377.441 515.274 377.441 515.274 349.686 531.698 c 128,-1,3
 321.934 548.121 321.934 548.121 321.99 580.37 c 0,4,5
 323.789 613.609 323.789 613.609 351.602 629.434 c 2,6,-1
 516.738 723.399 l 2,7,8
 544.551 739.224 544.551 739.224 572.307 722.802 c 128,-1,9
 600.059 706.378 600.059 706.378 600 674.129 c 128,-1,10
 599.941 641.881 599.941 641.881 572.129 626.055 c 2,0,-1
325.139 626.055 m 2,11,-1
 160 532.09 l 2,12,13
 130.451 515.274 130.451 515.274 102.695 531.698 c 128,-1,14
 74.9434 548.121 74.9434 548.121 75 580.37 c 0,15,16
 76.7988 613.609 76.7988 613.609 104.611 629.434 c 2,17,-1
 269.748 723.399 l 2,18,19
 297.561 739.224 297.561 739.224 325.316 722.802 c 128,-1,20
 353.068 706.378 353.068 706.378 353.01 674.129 c 128,-1,21
 352.951 641.881 352.951 641.881 325.139 626.055 c 2,11,-1
EndSplineSet
EndChar
StartChar: dotaccent
Encoding: 729 729 108
Width: 213
Flags: W
TeX: 0 0 0 0
Fore
100 667.756 m 0,0,1
 122.002 671.755 122.002 671.755 140 655.756 c 0,2,3
 158 637.756 158 637.756 158 613.756 c 2,4,-1
 158 605.756 l 2,5,6
 158 575.756 158 575.756 132 559.756 c 0,7,8
 104 543.756 104 543.756 78 559.756 c 128,-1,9
 52.002 575.755 52.002 575.755 52 605.756 c 2,10,-1
 52 613.756 l 2,11,12
 52 623.755 52 623.755 56 631.756 c 1,13,14
 66.002 663.756 66.002 663.756 100 667.756 c 0,0,1
EndSplineSet
EndChar
StartChar: dotlessi
Encoding: 305 305 136
Width: 204
Flags: W
TeX: 0 0 0 0
Fore
104 476 m 0,0,1
 128 476 128 476 142 460 c 0,2,3
 158 444 158 444 158 422 c 2,4,-1
 158 54 l 2,5,6
 158 24 158 24 132 8 c 0,7,8
 104 -8 104 -8 78 8 c 128,-1,9
 52 24 52 24 52 54 c 2,10,-1
 52 422 l 2,11,12
 52 434 52 434 58 444 c 1,13,14
 70 476 70 476 104 476 c 0,0,1
EndSplineSet
EndChar
